<svg width="1088" height="344" viewBox="0 0 1088 344" fill="none" xmlns="http://www.w3.org/2000/svg">
<path d="M376.129 143.515L371.975 149.235C367.127 155.474 363.838 162.234 362.107 169.514C360.722 176.794 360.029 187.887 360.029 202.793V247.511L354.836 249.591L327.829 235.551C310.863 246.644 291.82 252.191 270.699 252.191C236.075 252.191 208.549 240.925 188.121 218.392C168.039 195.86 157.998 165.527 157.998 127.395C157.998 88.2235 168.905 57.1979 190.718 34.3187C212.877 11.4396 242.654 0 280.048 0C303.938 0 323.328 4.67983 338.216 14.0395C353.451 23.0525 361.068 35.0121 361.068 49.9182C361.068 64.4777 355.009 75.9172 342.89 84.2369C330.772 92.5566 315.537 96.7165 297.187 96.7165C302.034 90.8234 305.843 84.5836 308.613 77.9972C311.383 71.0641 312.768 62.2244 312.768 51.4781C312.768 39.6919 309.305 30.3322 302.38 23.3991C295.456 16.1194 286.8 12.4795 276.412 12.4795C257.023 12.4795 241.442 23.0525 229.67 44.1984C218.244 64.9976 212.531 92.73 212.531 127.395C212.531 147.848 215.474 166.221 221.36 182.513C227.593 198.459 236.075 210.939 246.809 219.952C257.542 228.965 269.834 233.472 283.683 233.472C294.071 233.472 304.112 231.565 313.806 227.752V180.953C313.806 172.98 313.114 167.261 311.729 163.794C310.344 159.981 307.747 157.034 303.938 154.954C300.13 152.528 293.897 150.101 285.241 147.675L288.358 137.795H371.975L376.129 143.515Z" fill="#F4F4F4"/>
<path d="M399.444 163.794C399.444 136.408 407.234 114.743 422.815 98.7964C438.742 82.8503 460.209 74.8773 487.216 74.8773C514.222 74.8773 535.689 83.0236 551.616 99.3164C567.543 115.262 575.507 136.755 575.507 163.794C575.507 190.833 567.543 212.326 551.616 228.272C535.689 244.218 514.222 252.191 487.216 252.191C460.209 252.191 438.742 244.218 422.815 228.272C407.234 212.326 399.444 190.833 399.444 163.794ZM523.051 164.834C523.051 141.608 519.762 122.716 513.184 108.156C506.605 93.2499 498.295 85.7969 488.254 85.7969C477.175 85.7969 468.172 93.0766 461.248 107.636C454.323 121.849 450.86 140.568 450.86 163.794C450.86 187.367 453.977 206.086 460.209 219.952C466.787 233.818 475.443 240.751 486.177 240.751C496.91 240.751 505.739 233.818 512.664 219.952C519.589 205.739 523.051 187.367 523.051 164.834Z" fill="#F4F4F4"/>
<path d="M659.002 132.595C651.731 136.755 643.075 138.835 633.034 138.835C625.763 138.835 620.05 136.755 615.895 132.595C611.74 128.089 609.663 121.849 609.663 113.876C609.663 102.09 615.376 92.73 626.802 85.7969C638.574 78.5172 653.808 74.8773 672.505 74.8773C694.665 74.8773 711.977 79.7304 724.441 89.4368C737.252 99.1431 743.657 112.316 743.657 128.955V218.912C743.657 228.618 747.12 233.472 754.045 233.472C760.623 233.472 767.029 230.872 773.261 225.672L777.416 230.872C764.605 245.084 749.37 252.191 731.712 252.191C721.325 252.191 713.361 249.591 707.822 244.391C702.628 239.191 699.512 231.045 698.473 219.952H696.396C690.856 230.005 683.412 237.978 674.063 243.871C665.061 249.418 654.674 252.191 642.902 252.191C629.745 252.191 619.184 248.204 611.221 240.231C603.257 231.912 599.276 221.165 599.276 207.992C599.276 193.086 606.373 181.3 620.569 172.634C634.765 163.967 653.981 159.634 678.218 159.634C682.719 159.634 689.125 159.981 697.434 160.674V134.675C697.434 117.689 695.357 105.556 691.202 98.2764C687.047 90.65 680.296 86.8368 670.947 86.8368C664.369 86.8368 659.175 88.9168 655.366 93.0766C651.558 97.2365 649.653 102.61 649.653 109.196C649.653 119.596 652.77 127.395 659.002 132.595ZM666.792 226.192C687.22 226.192 697.434 207.646 697.434 170.554C680.122 170.554 667.138 173.5 658.482 179.393C649.826 184.94 645.499 192.913 645.499 203.313C645.499 210.246 647.403 215.792 651.211 219.952C655.02 224.112 660.214 226.192 666.792 226.192Z" fill="#F4F4F4"/>
<path d="M846.612 252.191C832.417 252.191 822.202 249.071 815.97 242.831C809.738 236.245 806.622 225.672 806.622 211.112V100.876H780.654C780.654 94.9832 781 91.17 781.692 89.4368C782.385 87.7035 784.462 86.3169 787.925 85.2769C799.351 82.157 808.353 77.3039 814.931 70.7174C821.51 64.131 826.877 54.598 831.032 42.1185C832.07 38.3053 833.801 36.052 836.225 35.3587C838.649 34.3188 844.535 33.7988 853.883 33.7988V80.5971H896.471C896.471 85.1036 895.778 89.2634 894.393 93.0766C893.008 96.5432 891.104 99.1431 888.681 100.876H853.883V217.872C853.883 228.272 858.211 233.472 866.867 233.472C870.676 233.472 874.831 232.258 879.332 229.832C884.179 227.405 888.507 224.112 892.316 219.952L896.471 225.152C881.583 243.178 864.963 252.191 846.612 252.191Z" fill="#F4F4F4"/>
<path d="M30.7721 343.951C29.7333 343.691 29.0192 343.106 28.6297 342.196C28.37 341.156 28.1103 340.181 27.8507 339.271C27.591 338.361 27.4611 337.452 27.4611 336.542V335.372C27.591 334.072 27.5261 332.772 27.2664 331.472C27.0067 330.302 26.8119 329.067 26.6821 327.767C26.6821 327.247 26.6172 326.857 26.4873 326.597L24.345 322.502C24.0853 322.242 23.6958 321.722 23.1764 320.942C22.7869 320.032 22.3325 319.252 21.8131 318.602C21.4236 317.822 20.9691 317.042 20.4498 316.262C20.1901 315.742 19.8655 315.287 19.476 314.897C19.0865 314.507 18.6969 314.052 18.3074 313.532C18.0477 313.142 17.7881 312.687 17.5284 312.167C17.2687 311.647 16.8792 311.192 16.3598 310.802L15.7755 309.827C15.2562 308.918 14.7368 308.073 14.2175 307.293C13.8279 306.513 13.4384 305.733 13.0489 304.953L12.4646 303.783C11.9453 302.093 11.361 300.468 10.7118 298.908C10.1924 297.348 9.60815 295.723 8.95895 294.033C8.56943 292.993 8.17991 292.018 7.79039 291.108C7.53071 290.198 7.14119 289.288 6.62183 288.378C5.71296 286.428 5.12868 284.348 4.869 282.139C4.73916 280.579 4.869 278.954 5.25852 277.264C5.64803 276.224 6.23232 275.314 7.01135 274.534C9.47831 272.454 12.205 271.674 15.1913 272.194L17.3336 272.584C18.8917 273.234 19.9953 274.144 20.6445 275.314C21.1639 276.224 21.6183 277.199 22.0079 278.239C22.3974 279.149 22.6571 280.189 22.7869 281.359C23.0466 282.139 23.3063 282.983 23.5659 283.893C23.8256 284.673 24.1502 285.518 24.5397 286.428C25.1889 287.858 25.9031 289.288 26.6821 290.718C27.3313 291.888 28.1103 292.863 29.0192 293.643C29.6684 294.163 30.3825 294.748 31.1616 295.398C31.9406 296.048 32.6547 296.698 33.3039 297.348L37.3939 301.443C37.6536 301.573 37.8483 301.768 37.9782 302.028C38.2378 302.288 38.4326 302.548 38.5624 302.808C38.952 303.068 39.4064 303.133 39.9258 303.003C41.2242 302.613 42.5226 301.898 43.821 300.858C45.8984 299.168 47.5863 297.413 48.8847 295.593C50.1831 293.773 51.0271 291.628 51.4166 289.158C51.6763 286.948 51.0271 284.998 49.469 283.308C49.2093 282.788 48.8198 282.463 48.3004 282.333C47.3916 281.814 46.4827 281.359 45.5738 280.969C44.7948 280.449 43.8859 280.059 42.8472 279.799C41.8084 279.409 40.8996 278.824 40.1205 278.044C39.6012 277.394 38.8221 277.004 37.7834 276.874C36.8745 276.614 36.0306 276.289 35.2515 275.899C34.4725 275.509 33.7584 275.054 33.1092 274.534C32.3301 273.884 31.5511 273.364 30.7721 272.974C29.993 272.454 29.214 271.934 28.4349 271.414C27.6559 271.024 26.8769 270.569 26.0978 270.049C25.4486 269.529 24.7994 269.009 24.1502 268.489C23.2413 267.839 22.3974 267.189 21.6183 266.539C20.8393 265.759 20.0603 265.044 19.2812 264.394C18.7619 264.134 18.4373 263.874 18.3074 263.614C17.6582 262.834 16.9441 262.119 16.1651 261.469C15.5159 260.689 14.8667 259.844 14.2175 258.934C13.8279 258.414 13.4384 257.959 13.0489 257.569C12.6594 257.049 12.2049 256.529 11.6856 256.009C11.1662 255.489 10.6469 254.97 10.1275 254.45C9.73799 253.8 9.41339 253.15 9.15371 252.5L7.40087 249.575C6.75167 248.275 6.1674 246.975 5.64804 245.675C5.12868 244.375 4.5444 243.075 3.8952 241.775C3.37584 240.345 2.85648 238.915 2.33712 237.485C1.9476 236.055 1.623 234.625 1.36332 233.195C1.23348 232.155 1.03872 231.18 0.779039 230.27C0.649199 229.36 0.519359 228.45 0.38952 227.541C0.25968 226.111 0.19476 224.746 0.19476 223.446C0.19476 222.016 0.12984 220.586 0 219.156C0 217.466 0.12984 215.776 0.38952 214.086C0.6492 212.396 0.973799 210.706 1.36332 209.016C1.623 207.976 1.88268 206.936 2.14236 205.896C2.40204 204.856 2.66172 203.881 2.9214 202.971C3.18108 202.321 3.44076 201.736 3.70044 201.216C3.96012 200.566 4.15488 199.982 4.28472 199.462C5.32343 196.732 6.81659 194.002 8.76419 191.272C9.41339 190.362 10.0626 189.517 10.7118 188.737C11.4908 187.827 12.2699 186.982 13.0489 186.202C13.6981 185.552 14.3473 184.837 14.9965 184.057C15.6457 183.277 16.23 182.497 16.7493 181.717C18.4373 179.507 20.3849 177.882 22.5921 176.842C24.7994 175.672 27.3313 175.217 30.1878 175.477C33.6935 175.997 37.0044 177.362 40.1205 179.572C41.1592 180.352 42.198 181.197 43.2367 182.107C44.4052 182.887 45.5089 183.732 46.5476 184.642C49.1444 186.722 51.2868 189.062 52.9747 191.662C53.7537 192.832 54.5328 194.002 55.3118 195.172C56.0908 196.342 56.805 197.512 57.4542 198.682C57.8437 199.202 58.1683 199.722 58.4279 200.241C58.6876 200.761 58.8824 201.346 59.0122 201.996C59.2719 203.166 59.3368 204.336 59.207 205.506C59.207 206.546 59.0772 207.651 58.8175 208.821L58.2332 210.381C57.8437 211.031 57.4542 211.746 57.0646 212.526C56.6751 213.306 56.2856 214.021 55.8961 214.671C55.6364 215.191 55.3118 215.711 54.9223 216.231C54.6626 216.621 54.4029 217.011 54.1432 217.401C53.1045 219.091 52.5852 220.781 52.5852 222.471V241.385C52.5852 243.985 52.1956 246.455 51.4166 248.795C51.4166 248.925 51.3517 249.055 51.2218 249.185C51.2218 249.185 51.2218 249.315 51.2218 249.575C51.2218 250.225 51.4166 250.745 51.8061 251.135L53.559 252.305C54.9872 253.215 56.2856 254.255 57.4542 255.424C58.7526 256.464 60.051 257.504 61.3493 258.544C62.1284 259.194 62.8425 259.974 63.4917 260.884C64.1409 261.664 64.7252 262.444 65.2446 263.224C65.7639 263.874 66.2183 264.589 66.6079 265.369C66.9974 266.019 67.3869 266.669 67.7764 267.319C68.4256 268.229 68.8801 269.269 69.1397 270.439C69.5293 271.609 69.8539 272.779 70.1135 273.949V274.729C69.9837 275.639 69.9837 276.614 70.1135 277.654C70.2434 278.694 70.3732 279.734 70.5031 280.774C70.5031 281.034 70.5031 281.359 70.5031 281.749C70.6329 282.009 70.6329 282.334 70.5031 282.724L69.9188 286.818C69.6591 287.468 69.7889 287.858 70.3083 287.988C70.6978 287.988 70.8926 288.118 70.8926 288.378C71.2821 288.508 71.347 288.833 71.0873 289.353C70.8277 289.873 70.5031 290.003 70.1135 289.743C70.1135 289.613 70.0486 289.548 69.9188 289.548C69.5293 289.418 69.2696 289.483 69.1397 289.743C69.0099 290.133 68.8801 290.523 68.7502 290.913C68.7502 291.303 68.7502 291.758 68.7502 292.278C68.2309 293.058 68.101 293.708 68.3607 294.228C68.3607 294.618 68.2958 294.878 68.1659 295.008C67.7764 295.398 67.6466 295.918 67.7764 296.568C67.7764 296.828 67.5817 297.088 67.1921 297.348C66.4131 297.738 65.8288 298.453 65.4393 299.493C64.7901 301.183 64.0111 302.808 63.1022 304.368C62.3232 305.798 61.4143 307.228 60.3756 308.658C59.3368 310.088 58.2332 311.517 57.0646 312.947C56.0259 314.247 54.7924 315.482 53.3642 316.652C52.1956 317.562 50.9622 318.407 49.6638 319.187C48.3654 320.097 47.002 320.877 45.5738 321.527C45.0544 321.657 44.5351 321.917 44.0157 322.307L41.6786 323.477C40.6399 323.607 39.6012 324.127 38.5624 325.037L37.3939 325.817C37.0044 326.207 36.6798 326.857 36.4201 327.767V333.032C36.4201 333.552 36.4201 334.072 36.4201 334.592C36.4201 335.112 36.3552 335.632 36.2253 336.152C36.0955 336.412 36.0306 336.737 36.0306 337.127C36.0306 337.516 35.9656 337.842 35.8358 338.102C35.706 338.621 35.5761 339.141 35.4463 339.661C35.3165 340.311 35.1217 340.961 34.862 341.611C34.2128 343.431 32.8495 344.211 30.7721 343.951ZM42.6524 246.065C43.1718 246.065 43.4964 245.87 43.6262 245.48C43.756 244.83 43.756 244.18 43.6262 243.53C43.6262 242.88 43.5613 242.295 43.4314 241.775C43.3016 241.125 43.2367 240.475 43.2367 239.825C43.2367 239.045 43.1718 238.33 43.0419 237.68C43.0419 236.9 42.977 236.12 42.8472 235.34C42.7173 234.56 42.7173 233.78 42.8472 233C42.977 232.87 42.977 232.805 42.8472 232.805C42.8472 232.675 42.8472 232.61 42.8472 232.61C42.7173 231.7 42.6524 230.855 42.6524 230.075C42.6524 229.295 42.6524 228.515 42.6524 227.736C42.6524 225.136 42.133 222.601 41.0943 220.131C40.1854 218.051 39.2117 216.036 38.1729 214.086C37.2641 212.136 36.2903 210.186 35.2515 208.236C34.862 207.456 34.3427 206.741 33.6935 206.091C33.1741 205.311 32.5898 204.596 31.9406 203.946C31.4213 203.166 30.7071 203.036 29.7983 203.556C29.0192 203.686 28.1753 204.206 27.2664 205.116C26.4873 206.026 25.7732 207.001 25.124 208.041C24.4748 209.081 23.8905 210.186 23.3712 211.356C23.2413 211.746 23.1115 212.136 22.9817 212.526C22.8518 212.916 22.722 213.241 22.5921 213.501C22.4623 214.411 22.3325 215.386 22.2026 216.426C22.2026 217.336 22.2026 218.311 22.2026 219.351V221.886C22.2026 223.706 22.722 225.656 23.7607 227.736C24.6696 229.685 25.968 231.635 27.6559 233.585C28.0454 234.105 28.4349 234.625 28.8245 235.145C29.214 235.535 29.6035 236.055 29.993 236.705C31.1616 238.265 32.46 239.63 33.8882 240.8C35.4463 241.97 37.0693 243.075 38.7572 244.115L41.6786 245.675C41.9383 245.805 42.133 245.87 42.2629 245.87C42.3927 245.87 42.5226 245.935 42.6524 246.065Z" fill="#FFCC47"/>
<path d="M124.205 318.407C123.945 318.277 123.556 318.212 123.036 318.212C122.777 318.212 122.517 318.017 122.257 317.627C121.998 317.237 121.738 316.912 121.478 316.652C121.219 316.262 120.959 315.807 120.699 315.287C120.31 314.767 119.985 314.767 119.726 315.287H119.336C119.336 315.157 119.271 315.092 119.141 315.092C119.141 314.962 119.141 314.897 119.141 314.897C118.752 313.077 118.167 311.387 117.388 309.827C116.999 308.788 116.609 307.748 116.22 306.708C115.96 305.538 115.765 304.368 115.636 303.198L114.467 294.618L113.883 287.598V287.208C113.623 285.648 113.493 284.088 113.493 282.529C113.493 280.839 113.493 279.149 113.493 277.459C113.363 276.549 113.298 275.704 113.298 274.924C113.298 274.014 113.234 273.104 113.104 272.194C112.974 271.154 112.844 270.114 112.714 269.074C112.714 268.034 112.714 267.059 112.714 266.149L112.909 250.745V229.88C112.649 229.1 112.26 228.71 111.74 228.71C111.481 228.71 111.156 228.775 110.767 228.905C110.507 228.905 110.247 228.905 109.988 228.905L101.223 231.245C100.055 231.635 98.8863 232.025 97.7177 232.415C96.5491 232.675 95.3806 233 94.212 233.39C93.3031 233.52 92.3943 233.65 91.4854 233.78C90.7064 233.78 89.8624 233.78 88.9535 233.78C88.3043 233.78 87.5902 233.52 86.8112 233C85.9023 232.61 85.1232 232.09 84.474 231.44C83.8248 230.79 83.1756 230.075 82.5264 229.295L82.1369 228.71C81.8772 227.8 81.6176 226.956 81.3579 226.176C81.228 225.266 81.228 224.356 81.3579 223.446C81.4877 222.276 81.7474 221.171 82.1369 220.131C82.6563 219.091 83.3704 218.181 84.2793 217.401C84.6688 217.141 84.9934 216.816 85.2531 216.426C85.6426 216.036 86.0321 215.646 86.4216 215.256C86.941 214.996 87.2656 214.866 87.3954 214.866C88.1745 214.866 88.8886 214.736 89.5378 214.476C90.187 214.086 90.8362 213.826 91.4854 213.696C92.1346 213.566 92.7838 213.436 93.433 213.306C94.0822 213.176 94.7314 213.046 95.3806 212.916C97.1983 212.396 99.0161 211.941 100.834 211.551C102.652 211.031 104.469 210.641 106.287 210.381L116.804 208.626C117.064 208.496 117.259 208.431 117.388 208.431C117.648 208.431 117.843 208.366 117.973 208.236C118.752 207.976 119.531 207.781 120.31 207.651C121.089 207.521 121.868 207.586 122.647 207.846C122.907 207.976 123.101 208.041 123.231 208.041C123.491 207.911 123.686 207.846 123.816 207.846C126.023 207.586 128.23 207.326 130.437 207.066C132.645 206.806 134.787 206.481 136.864 206.091C138.552 205.831 140.24 205.571 141.928 205.311C143.616 205.051 145.304 204.856 146.992 204.726C148.29 204.466 149.589 204.271 150.887 204.141C152.186 204.011 153.484 203.881 154.782 203.751C155.821 203.621 156.86 203.491 157.898 203.361C159.067 203.231 160.171 203.101 161.209 202.971C162.248 202.841 163.222 202.841 164.131 202.971C165.17 202.971 166.208 202.971 167.247 202.971C167.896 202.971 168.48 203.166 169 203.556C169.649 203.946 170.233 204.271 170.753 204.531C171.272 204.921 171.986 205.571 172.895 206.481C173.155 206.741 173.414 207.326 173.674 208.236C173.804 208.626 173.934 209.081 174.064 209.601C174.193 209.991 174.323 210.446 174.453 210.966C174.713 212.136 174.583 213.241 174.064 214.281L172.895 217.011C172.765 217.401 172.57 217.791 172.311 218.181C172.181 218.441 171.986 218.701 171.726 218.961C171.467 219.221 171.337 219.351 171.337 219.351C170.818 219.741 170.233 220.131 169.584 220.521C169.065 220.911 168.416 221.171 167.636 221.301L159.262 221.886C158.483 221.886 157.704 221.951 156.925 222.081C156.146 222.081 155.302 222.146 154.393 222.276H153.419C151.342 222.406 149.329 222.601 147.381 222.861C145.434 223.121 143.486 223.381 141.539 223.641L133.748 224.811C133.359 224.811 133.099 224.876 132.969 225.006C132.45 225.006 132.06 225.396 131.801 226.176V226.761C131.801 228.06 131.801 229.36 131.801 230.66C131.801 231.83 131.866 233.065 131.995 234.365C132.385 236.185 132.385 238.005 131.995 239.825C131.866 240.215 131.736 240.605 131.606 240.995C131.606 241.255 131.606 241.515 131.606 241.775C131.736 243.335 131.606 245.025 131.216 246.845C131.216 247.235 131.216 247.625 131.216 248.015C131.216 248.405 131.281 248.795 131.411 249.185C131.541 249.705 131.606 250.29 131.606 250.94C131.606 251.59 131.606 252.24 131.606 252.89V263.029C131.606 263.549 131.541 264.199 131.411 264.979C131.411 265.629 131.411 266.279 131.411 266.929C131.411 267.449 131.411 268.034 131.411 268.684C131.541 269.334 131.606 269.984 131.606 270.634C131.606 271.544 131.606 272.454 131.606 273.364C131.736 274.274 131.736 275.249 131.606 276.289V282.333C131.606 282.463 131.541 282.594 131.411 282.724C131.411 282.854 131.476 283.048 131.606 283.308C131.736 284.478 131.801 285.713 131.801 287.013C131.801 288.183 131.931 289.353 132.19 290.523C132.19 290.913 132.19 291.303 132.19 291.693C132.32 292.083 132.32 292.473 132.19 292.863C132.19 294.033 132.32 295.268 132.58 296.568C132.839 297.738 133.034 298.908 133.164 300.078C133.424 301.508 133.683 302.938 133.943 304.368C134.333 305.798 134.657 307.228 134.917 308.658L135.501 311.387C135.501 311.777 135.306 312.102 134.917 312.362C134.917 312.362 134.852 312.362 134.722 312.362C134.722 312.362 134.657 312.427 134.527 312.557C133.878 312.817 133.618 313.207 133.748 313.727V314.702C133.748 314.702 133.683 314.767 133.554 314.897C133.554 315.027 133.489 315.092 133.359 315.092C132.71 315.092 132.19 315.352 131.801 315.872C131.411 316.392 130.957 316.847 130.437 317.237C130.048 317.497 129.528 317.757 128.879 318.017C127.191 318.667 125.633 318.797 124.205 318.407Z" fill="#FFCC47"/>
<path d="M206.36 322.502C203.893 322.762 201.881 321.982 200.323 320.162C199.544 319.382 198.829 318.537 198.18 317.627C197.531 316.717 197.012 315.742 196.622 314.702C195.973 312.882 195.389 311.062 194.869 309.243C194.35 307.293 193.896 305.408 193.506 303.588C193.117 302.158 192.922 300.793 192.922 299.493C192.792 298.063 192.597 296.698 192.338 295.398C192.208 293.968 192.143 292.538 192.143 291.108C192.143 290.328 192.143 289.548 192.143 288.768C192.143 287.858 192.078 287.013 191.948 286.233C191.818 285.713 191.753 285.258 191.753 284.868C191.753 284.478 191.753 284.023 191.753 283.503C191.753 281.684 191.753 279.864 191.753 278.044C191.753 276.094 191.688 274.209 191.558 272.389C191.558 271.349 191.494 270.439 191.364 269.659C191.234 268.749 190.974 267.839 190.585 266.929C190.065 265.499 190 263.939 190.39 262.249C190.39 261.859 190.455 261.599 190.585 261.469C190.844 260.559 190.974 259.649 190.974 258.739C191.104 257.829 191.104 256.919 190.974 256.009C190.844 255.359 190.779 254.71 190.779 254.06C190.779 253.41 190.779 252.825 190.779 252.305C190.65 250.875 190.585 249.445 190.585 248.015C190.715 246.455 190.844 244.96 190.974 243.53C191.104 243.14 191.169 242.75 191.169 242.36C191.169 241.97 191.169 241.58 191.169 241.19C191.039 239.76 191.039 238.395 191.169 237.095C191.429 235.795 191.623 234.495 191.753 233.195C192.013 231.635 192.273 230.14 192.532 228.71C192.792 227.151 193.117 225.591 193.506 224.031C193.766 223.381 193.896 222.666 193.896 221.886C193.896 221.106 193.896 220.326 193.896 219.546C193.896 218.896 193.831 218.246 193.701 217.596C193.701 216.946 193.701 216.361 193.701 215.841C193.701 215.451 193.701 215.061 193.701 214.671C193.701 214.281 193.766 213.891 193.896 213.501C194.025 213.111 194.09 212.721 194.09 212.331C194.09 211.941 194.155 211.681 194.285 211.551C194.675 211.031 194.999 210.576 195.259 210.186C195.519 209.666 195.908 209.211 196.427 208.821C197.077 208.431 197.661 208.041 198.18 207.651C198.829 207.261 199.414 206.936 199.933 206.676C200.582 206.416 201.102 206.091 201.491 205.701C202.011 205.051 202.53 204.466 203.049 203.946C203.699 203.296 204.218 202.581 204.607 201.801C205.257 201.151 205.906 200.436 206.555 199.657C207.334 198.747 208.178 198.032 209.087 197.512C209.347 197.382 209.736 197.057 210.255 196.537C211.813 195.107 213.631 194.197 215.709 193.807C216.098 193.677 216.423 193.612 216.682 193.612C217.072 193.482 217.462 193.417 217.851 193.417L219.214 192.832C220.253 192.442 221.162 192.637 221.941 193.417C222.201 193.807 222.525 194.197 222.915 194.587C223.434 194.847 223.889 195.107 224.278 195.367C225.317 196.277 226.291 197.252 227.2 198.292C228.238 199.332 229.147 200.501 229.926 201.801C231.225 203.881 232.328 205.961 233.237 208.041C234.276 210.121 235.25 212.266 236.158 214.476L239.664 222.861C239.794 223.641 240.119 224.356 240.638 225.006C241.677 226.956 242.456 228.97 242.975 231.05C243.494 233 244.014 235.015 244.533 237.095C244.663 237.355 244.728 237.615 244.728 237.875C244.858 238.135 244.923 238.395 244.923 238.655C245.182 239.695 245.377 240.8 245.507 241.97C245.767 243.01 245.832 244.05 245.702 245.09C245.832 246.26 245.767 247.43 245.507 248.6C245.377 249.64 245.182 250.68 244.923 251.72C244.533 253.02 244.079 254.255 243.559 255.424C243.04 256.464 242.456 257.569 241.807 258.739C241.547 259.519 241.092 260.234 240.443 260.884C239.794 261.534 239.145 262.119 238.496 262.639C237.457 263.159 236.418 263.939 235.379 264.979C235.12 265.239 234.795 265.434 234.406 265.564C234.146 265.694 233.886 265.889 233.627 266.149C232.718 266.539 231.744 266.994 230.705 267.514C229.666 267.904 228.628 268.294 227.589 268.684C227.459 268.684 227.394 268.814 227.394 269.074C227.394 269.204 227.459 269.334 227.589 269.464L232.848 273.169C233.497 273.559 234.081 273.949 234.6 274.339C235.12 274.599 235.639 274.924 236.158 275.314L237.327 275.899C238.885 276.809 240.443 277.784 242.001 278.824C243.559 279.864 245.053 280.904 246.481 281.944C249.207 283.633 251.934 285.388 254.661 287.208C257.387 288.898 259.984 290.783 262.451 292.863C264.658 294.553 266.606 296.503 268.294 298.713C268.683 299.103 269.073 299.558 269.462 300.078C269.852 300.468 270.306 300.793 270.826 301.053L271.41 301.638C273.487 303.458 274.656 305.928 274.916 309.048C274.916 309.438 274.851 309.828 274.721 310.218C274.721 310.607 274.721 310.997 274.721 311.387C274.721 312.167 274.461 312.817 273.942 313.337C273.423 313.597 273.163 313.922 273.163 314.312C272.773 315.222 272.189 315.872 271.41 316.262C270.761 316.522 270.112 316.912 269.462 317.432C269.203 317.562 268.748 317.627 268.099 317.627C267.32 317.497 266.476 317.367 265.567 317.237C264.788 317.107 264.009 317.042 263.23 317.042C262.191 317.042 261.088 316.587 259.919 315.677C259.14 315.027 258.426 314.442 257.777 313.922C257.128 313.272 256.478 312.492 255.829 311.582C254.141 309.243 251.934 307.098 249.207 305.148C247.909 304.108 246.676 303.133 245.507 302.223C244.338 301.313 243.04 300.468 241.612 299.688C240.703 299.168 239.794 298.648 238.885 298.128C238.106 297.478 237.197 296.893 236.158 296.373C232.912 294.163 229.602 292.018 226.226 289.938C222.85 287.728 219.474 285.518 216.098 283.308C215.579 282.918 214.995 282.529 214.345 282.139C213.696 281.749 213.047 281.359 212.398 280.969C212.138 280.709 211.749 280.449 211.229 280.189C210.71 280.189 210.45 280.384 210.45 280.774C210.45 280.904 210.385 281.034 210.255 281.164C210.255 281.164 210.255 281.229 210.255 281.359C210.255 281.749 210.255 282.139 210.255 282.529C210.255 282.918 210.32 283.308 210.45 283.698C210.58 284.738 210.645 285.778 210.645 286.818C210.645 287.728 210.645 288.703 210.645 289.743C210.645 290.523 210.645 291.303 210.645 292.083C210.775 292.733 210.905 293.448 211.034 294.228C211.034 294.618 211.034 295.073 211.034 295.593C211.164 295.983 211.229 296.373 211.229 296.763C211.099 297.933 211.164 299.103 211.424 300.273C211.684 301.443 211.878 302.613 212.008 303.783L213.177 308.853C213.307 309.373 213.437 309.958 213.566 310.607C213.696 311.127 213.826 311.712 213.956 312.362C214.086 312.882 214.086 313.402 213.956 313.922C213.956 314.312 213.891 314.767 213.761 315.287C213.761 315.417 213.631 315.612 213.372 315.872C212.722 316.002 212.268 316.457 212.008 317.237C211.619 318.147 211.034 318.927 210.255 319.577C209.606 320.357 208.892 321.072 208.113 321.722C207.983 321.852 207.724 321.982 207.334 322.112C206.944 322.242 206.62 322.372 206.36 322.502ZM213.956 254.255H214.345C215.774 253.995 217.202 253.735 218.63 253.475C220.188 253.085 221.681 252.63 223.11 252.11C224.538 251.72 225.771 251.005 226.81 249.965C227.719 249.055 228.173 248.015 228.173 246.845C228.303 245.935 228.303 245.09 228.173 244.31C228.173 243.4 228.043 242.49 227.784 241.58C227.264 239.24 226.68 236.965 226.031 234.755C225.382 232.415 224.603 230.205 223.694 228.125L221.941 223.446C221.551 222.146 221.097 220.911 220.578 219.741C220.058 218.441 219.474 217.206 218.825 216.036C218.695 215.776 218.565 215.516 218.435 215.256C218.305 214.866 218.176 214.541 218.046 214.281L217.267 213.501C216.877 212.981 216.423 212.981 215.903 213.501C215.774 213.501 215.579 213.631 215.319 213.891C214.41 215.061 213.566 216.296 212.787 217.596C212.138 218.896 211.749 220.326 211.619 221.886C211.489 222.406 211.359 222.926 211.229 223.446C211.229 223.966 211.229 224.551 211.229 225.201V233.585C211.099 235.405 211.034 237.29 211.034 239.24C211.164 241.19 211.099 243.075 210.84 244.895C210.71 245.285 210.645 245.675 210.645 246.065C210.775 246.455 210.84 246.845 210.84 247.235C210.97 248.015 211.034 248.795 211.034 249.575C211.034 250.225 211.034 250.94 211.034 251.72C211.034 253.02 211.164 253.8 211.424 254.06C211.813 254.32 212.657 254.385 213.956 254.255Z" fill="#FFCC47"/>
<path d="M313.781 319.967C313.002 319.967 312.483 319.902 312.223 319.772C311.574 319.512 310.924 319.382 310.275 319.382C309.756 319.512 309.172 319.577 308.522 319.577C308.393 319.577 308.263 319.577 308.133 319.577C308.003 319.707 307.873 319.772 307.743 319.772C306.834 319.902 305.926 319.967 305.017 319.967C304.238 319.967 303.459 319.837 302.68 319.577C302.55 319.447 302.42 319.382 302.29 319.382C301.381 319.512 300.602 319.252 299.953 318.602C299.304 317.952 298.655 317.367 298.005 316.847C297.356 316.197 297.032 315.482 297.032 314.702L296.447 313.142C296.058 312.232 295.928 311.387 296.058 310.607C296.188 310.347 296.188 310.087 296.058 309.827C296.058 309.567 296.058 309.308 296.058 309.048C295.928 308.788 295.863 308.528 295.863 308.268C295.863 307.878 295.798 307.553 295.668 307.293C295.409 306.123 295.214 304.953 295.084 303.783C295.084 302.483 295.149 301.248 295.279 300.078C295.409 299.298 295.863 297.998 296.642 296.178C297.421 294.228 297.876 293.058 298.005 292.668C298.395 292.018 298.59 291.498 298.59 291.108C298.46 289.678 298.395 288.248 298.395 286.818C298.525 285.258 298.59 283.763 298.59 282.333C298.59 281.424 298.784 280.709 299.174 280.189C299.693 279.279 299.758 278.304 299.369 277.264L298.784 275.119C298.005 273.689 298.07 272.454 298.979 271.414C298.979 271.284 298.979 271.219 298.979 271.219C299.109 271.089 299.174 270.959 299.174 270.829C299.434 270.569 299.499 270.244 299.369 269.854C299.239 269.334 299.174 268.944 299.174 268.684C299.174 268.164 299.239 267.644 299.369 267.124C299.628 266.474 299.693 265.889 299.563 265.369C299.563 265.369 299.434 265.239 299.174 264.979C299.044 264.719 298.979 264.199 298.979 263.419C299.109 262.639 299.174 262.184 299.174 262.054V256.594C299.304 255.944 299.369 255.36 299.369 254.84C299.369 254.19 299.434 253.54 299.563 252.89C299.693 252.11 299.693 251.33 299.563 250.55C299.563 249.64 299.563 248.73 299.563 247.82C299.434 247.17 299.304 246.455 299.174 245.675C299.174 244.895 299.174 244.115 299.174 243.335C299.044 243.075 298.979 242.75 298.979 242.36C298.979 241.97 298.979 241.645 298.979 241.385C298.849 240.735 298.719 240.085 298.59 239.435C298.59 238.785 298.59 238.135 298.59 237.485C298.59 237.225 298.33 236.38 297.811 234.95C297.291 233.39 297.096 232.09 297.226 231.05C297.356 230.79 297.421 230.465 297.421 230.075C297.421 229.685 297.291 229.36 297.032 229.1C296.772 228.97 296.642 228.71 296.642 228.32V227.736C297.032 226.176 296.837 224.616 296.058 223.056C295.538 222.276 295.344 221.496 295.473 220.716C295.473 219.676 295.019 218.896 294.11 218.376C293.461 217.726 292.877 216.946 292.357 216.036C291.838 215.126 291.513 214.216 291.384 213.306C291.254 212.656 291.189 212.006 291.189 211.356C291.189 210.706 291.189 210.121 291.189 209.601C291.189 209.081 291.254 208.756 291.384 208.626C291.903 208.106 292.163 207.521 292.163 206.871C292.163 206.091 292.227 205.506 292.357 205.116C292.487 204.986 292.617 204.921 292.747 204.921C292.877 204.921 293.007 204.856 293.136 204.726C293.656 204.596 293.915 204.141 293.915 203.361C293.656 202.841 293.526 202.386 293.526 201.996C293.396 201.476 293.591 201.021 294.11 200.631C294.37 200.111 294.694 199.982 295.084 200.241C295.993 200.631 297.032 200.501 298.2 199.851C298.719 199.592 299.044 199.462 299.174 199.462C299.563 199.462 299.758 199.462 299.758 199.462C299.888 199.332 300.278 199.267 300.927 199.267C301.706 199.397 302.42 199.137 303.069 198.487C303.978 197.577 305.082 197.122 306.38 197.122H318.455C321.441 197.252 324.428 197.252 327.414 197.122C330.4 196.992 333.322 196.927 336.178 196.927C336.827 196.927 337.347 196.927 337.736 196.927C338.256 196.797 338.775 196.667 339.294 196.537C340.074 196.147 340.982 195.952 342.021 195.952H346.501C347.539 195.952 348.448 195.952 349.227 195.952C350.136 195.822 351.045 195.692 351.954 195.562C352.473 195.432 352.928 195.367 353.317 195.367C353.837 195.367 354.356 195.367 354.875 195.367C355.395 195.367 355.914 195.367 356.433 195.367C356.953 195.367 357.472 195.302 357.991 195.172C359.03 195.042 360.134 194.977 361.302 194.977C362.471 194.847 363.575 194.782 364.613 194.782C365.133 194.782 365.587 194.782 365.977 194.782C366.496 194.652 367.015 194.522 367.535 194.392C368.573 194.132 369.547 194.002 370.456 194.002C371.495 193.872 372.469 193.742 373.377 193.612C374.416 193.482 375.39 193.352 376.299 193.222C377.338 193.092 378.311 192.962 379.22 192.832C380.389 192.832 381.233 192.962 381.752 193.222C382.531 193.742 383.245 194.197 383.894 194.587C384.674 194.977 385.388 195.497 386.037 196.147C386.556 196.667 386.881 197.122 387.011 197.512C387.14 198.032 387.27 198.552 387.4 199.072C387.53 199.592 387.66 200.176 387.79 200.826V202.191C387.66 202.841 387.53 203.556 387.4 204.336C387.4 204.986 387.335 205.701 387.205 206.481C386.946 207.001 386.621 207.456 386.232 207.846L382.726 211.356C381.428 211.746 380.129 212.006 378.831 212.136C377.662 212.266 376.429 212.266 375.13 212.136H373.767C373.118 212.266 372.469 212.331 371.819 212.331C371.17 212.331 370.521 212.266 369.872 212.136C369.093 212.006 368.314 212.006 367.535 212.136C366.756 212.136 365.977 212.136 365.198 212.136C364.678 212.136 364.159 212.201 363.639 212.331C363.25 212.331 362.795 212.266 362.276 212.136C361.627 212.006 360.978 212.006 360.329 212.136C359.809 212.136 359.225 212.201 358.576 212.331C358.056 212.331 357.472 212.396 356.823 212.526C356.303 212.526 355.719 212.526 355.07 212.526C353.382 212.786 351.564 212.916 349.617 212.916C347.799 212.916 345.981 213.046 344.163 213.306C342.995 213.176 341.891 213.241 340.853 213.501C339.814 213.631 338.71 213.761 337.542 213.891C336.503 214.021 335.399 214.086 334.231 214.086C333.062 214.086 331.958 214.216 330.92 214.476C329.621 214.476 328.323 214.671 327.025 215.061C325.856 215.321 324.623 215.516 323.324 215.646L321.961 215.841C321.052 215.841 320.208 215.971 319.429 216.231C318.65 216.361 317.806 216.556 316.897 216.816C316.378 216.946 315.858 217.076 315.339 217.206C314.82 217.206 314.235 217.271 313.586 217.401C313.197 217.401 312.742 217.531 312.223 217.791C311.833 217.921 311.639 218.311 311.639 218.961L312.223 220.716C312.353 220.976 312.288 221.626 312.028 222.666C311.898 223.706 311.768 224.486 311.639 225.006C311.639 225.396 311.703 225.786 311.833 226.176C311.963 226.566 312.093 226.956 312.223 227.346C312.612 228.385 312.807 229.555 312.807 230.855C312.807 232.025 312.937 233.13 313.197 234.17C313.326 234.69 313.391 235.275 313.391 235.925C313.391 236.445 313.456 237.03 313.586 237.68C313.586 237.94 313.586 238.265 313.586 238.655C313.716 238.915 313.781 239.24 313.781 239.63C313.781 240.02 313.716 240.28 313.586 240.41C313.197 240.93 313.002 241.515 313.002 242.165C313.002 242.815 313.002 243.465 313.002 244.115C313.651 245.415 313.976 246.715 313.976 248.015C313.976 249.315 313.976 250.615 313.976 251.915C313.976 252.305 314.3 252.435 314.949 252.305H315.144C315.404 251.785 315.664 251.395 315.923 251.135C316.313 251.135 316.767 251.005 317.287 250.745C317.676 250.485 318.195 250.355 318.845 250.355C319.883 250.485 320.857 250.485 321.766 250.355C322.675 250.095 323.584 249.835 324.493 249.575C330.595 248.015 336.308 246 341.632 243.53C343.06 242.88 344.553 242.36 346.111 241.97C347.669 241.45 349.227 241.125 350.785 240.995H351.37C352.538 240.865 353.707 240.735 354.875 240.605C356.044 240.475 357.212 240.41 358.381 240.41C359.939 240.28 361.432 240.085 362.86 239.825C364.418 239.565 365.977 239.37 367.535 239.24C368.444 238.98 369.287 238.785 370.067 238.655C370.846 238.395 371.69 238.07 372.598 237.68C374.286 237.03 375.844 236.705 377.273 236.705C378.311 236.835 379.285 237.095 380.194 237.485C381.103 237.745 382.012 238.135 382.921 238.655C384.868 239.955 385.842 241.905 385.842 244.505C385.842 245.545 385.712 246.585 385.453 247.625C385.323 248.665 385.258 249.705 385.258 250.745C385.258 251.005 385.128 251.265 384.868 251.525L384.284 252.5C384.154 253.02 384.024 253.54 383.894 254.06C383.765 254.58 383.44 254.97 382.921 255.229C382.142 255.879 381.298 256.594 380.389 257.374C379.61 258.024 378.701 258.479 377.662 258.739C377.143 258.869 376.623 258.999 376.104 259.129C375.715 259.259 375.26 259.324 374.741 259.324C372.663 259.324 370.521 259.454 368.314 259.714C366.236 259.974 364.094 260.234 361.887 260.494C360.199 260.624 358.511 260.819 356.823 261.079C355.265 261.339 353.642 261.469 351.954 261.469C350.396 261.469 348.643 261.794 346.695 262.444C345.397 262.704 344.034 262.964 342.605 263.224C341.177 263.484 339.749 263.679 338.321 263.809C337.282 263.939 336.178 264.134 335.01 264.394C333.971 264.524 332.932 264.654 331.894 264.784L328.583 265.369C328.323 265.499 327.933 265.564 327.414 265.564C326.505 265.824 325.596 266.019 324.687 266.149C323.779 266.279 322.87 266.474 321.961 266.734C321.052 266.864 320.143 267.059 319.234 267.319C318.455 267.579 317.611 267.839 316.702 268.099C316.053 268.229 315.534 268.489 315.144 268.879C314.755 269.139 314.43 269.529 314.17 270.049C314.041 270.439 314.041 270.829 314.17 271.219C314.3 271.739 314.235 272.259 313.976 272.779C314.106 274.079 314.17 275.379 314.17 276.679C314.3 277.979 314.3 279.279 314.17 280.579C314.43 281.619 314.495 282.658 314.365 283.698C314.365 284.738 314.3 285.778 314.17 286.818C313.911 288.378 313.976 289.678 314.365 290.718C314.755 292.408 314.625 294.163 313.976 295.983C313.716 296.763 313.716 297.283 313.976 297.543C314.235 297.933 314.235 298.388 313.976 298.908V300.078C313.846 301.118 314.3 301.638 315.339 301.638H315.729C316.637 301.638 317.546 301.963 318.455 302.613C319.104 303.263 319.883 303.458 320.792 303.198L326.246 302.613C327.025 302.483 327.804 302.418 328.583 302.418C329.362 302.288 330.141 302.223 330.92 302.223C331.179 302.093 331.569 302.158 332.088 302.418C332.738 302.808 333.322 302.873 333.841 302.613C334.101 302.353 334.425 302.158 334.815 302.028C335.334 301.898 335.724 301.703 335.984 301.443C336.763 300.663 337.736 300.403 338.905 300.663C339.944 300.923 340.788 300.858 341.437 300.468C342.605 300.078 343.709 299.948 344.748 300.078C345.397 300.208 346.046 300.143 346.695 299.883C347.345 299.623 347.994 299.493 348.643 299.493C348.903 299.493 349.097 299.558 349.227 299.688C349.357 299.688 349.487 299.623 349.617 299.493C349.876 299.493 350.136 299.428 350.396 299.298C350.655 299.168 350.85 299.103 350.98 299.103C351.889 298.713 352.733 298.583 353.512 298.713C354.161 298.713 354.486 298.713 354.486 298.713C355.005 298.583 355.46 298.583 355.849 298.713C356.368 298.843 356.823 299.038 357.212 299.298C357.862 299.428 358.381 299.623 358.77 299.883C359.29 300.143 359.809 300.338 360.329 300.468C360.588 300.468 360.783 300.533 360.913 300.663C361.562 301.183 362.341 301.638 363.25 302.028C364.289 302.418 364.873 302.873 365.003 303.393C365.262 304.173 365.392 304.953 365.392 305.733C365.392 306.383 365.457 307.098 365.587 307.878C365.587 308.268 365.522 308.658 365.392 309.048C365.392 309.438 365.327 309.828 365.198 310.218C364.938 310.737 364.613 311.322 364.224 311.972C363.964 312.622 363.575 313.207 363.055 313.727C362.795 313.987 362.536 314.247 362.276 314.507C362.146 314.767 361.952 315.027 361.692 315.287C361.172 315.807 360.588 316.262 359.939 316.652C359.29 317.042 358.576 317.237 357.797 317.237C357.277 317.237 356.888 317.302 356.628 317.432C356.109 317.692 355.589 317.822 355.07 317.822C354.551 317.822 353.966 317.822 353.317 317.822C352.408 317.952 351.499 318.082 350.591 318.212C349.811 318.212 348.968 318.147 348.059 318.017C347.539 317.887 347.085 317.887 346.695 318.017C345.397 318.407 344.099 318.472 342.8 318.212C341.502 318.212 340.203 318.277 338.905 318.407C337.736 318.407 336.568 318.407 335.399 318.407H332.867C332.478 318.407 332.153 318.472 331.894 318.602C331.374 318.862 330.725 318.992 329.946 318.992C329.297 318.992 328.648 318.927 327.998 318.797H326.051C325.921 318.797 325.726 318.797 325.466 318.797C325.207 318.927 324.947 318.927 324.687 318.797C324.298 318.667 323.908 318.602 323.519 318.602C323.259 318.732 322.935 318.862 322.545 318.992C322.285 318.992 322.026 318.992 321.766 318.992C321.636 319.122 321.441 319.187 321.182 319.187C319.883 319.057 318.65 319.057 317.481 319.187C316.313 319.447 315.079 319.707 313.781 319.967Z" fill="#FFCC47"/>
<path d="M428.469 319.967C427.69 319.967 427.17 319.902 426.91 319.772C426.261 319.512 425.612 319.382 424.963 319.382C424.444 319.512 423.859 319.577 423.21 319.577C423.08 319.577 422.95 319.577 422.821 319.577C422.691 319.707 422.561 319.772 422.431 319.772C421.522 319.902 420.613 319.967 419.704 319.967C418.925 319.967 418.146 319.837 417.367 319.577C417.237 319.447 417.108 319.382 416.978 319.382C416.069 319.512 415.29 319.252 414.641 318.602C413.991 317.952 413.342 317.367 412.693 316.847C412.044 316.197 411.719 315.482 411.719 314.702L411.135 313.142C410.745 312.232 410.616 311.387 410.745 310.607C410.875 310.347 410.875 310.087 410.745 309.827C410.745 309.567 410.745 309.308 410.745 309.048C410.616 308.788 410.551 308.528 410.551 308.268C410.551 307.878 410.486 307.553 410.356 307.293C410.096 306.123 409.901 304.953 409.772 303.783C409.772 302.483 409.837 301.248 409.966 300.078C410.096 299.298 410.551 297.998 411.33 296.178C412.109 294.228 412.563 293.058 412.693 292.668C413.083 292.018 413.277 291.498 413.277 291.108C413.147 289.678 413.083 288.248 413.083 286.818C413.212 285.258 413.277 283.763 413.277 282.333C413.277 281.424 413.472 280.709 413.862 280.189C414.381 279.279 414.446 278.304 414.056 277.264L413.472 275.119C412.693 273.689 412.758 272.454 413.667 271.414C413.667 271.284 413.667 271.219 413.667 271.219C413.797 271.089 413.862 270.959 413.862 270.829C414.121 270.569 414.186 270.244 414.056 269.854C413.927 269.334 413.862 268.944 413.862 268.684C413.862 268.164 413.927 267.644 414.056 267.124C414.316 266.474 414.381 265.889 414.251 265.369C414.251 265.369 414.121 265.239 413.862 264.979C413.732 264.719 413.667 264.199 413.667 263.419C413.797 262.639 413.862 262.184 413.862 262.054V256.594C413.991 255.944 414.056 255.36 414.056 254.84C414.056 254.19 414.121 253.54 414.251 252.89C414.381 252.11 414.381 251.33 414.251 250.55C414.251 249.64 414.251 248.73 414.251 247.82C414.121 247.17 413.991 246.455 413.862 245.675C413.862 244.895 413.862 244.115 413.862 243.335C413.732 243.075 413.667 242.75 413.667 242.36C413.667 241.97 413.667 241.645 413.667 241.385C413.537 240.735 413.407 240.085 413.277 239.435C413.277 238.785 413.277 238.135 413.277 237.485C413.277 237.225 413.018 236.38 412.498 234.95C411.979 233.39 411.784 232.09 411.914 231.05C412.044 230.79 412.109 230.465 412.109 230.075C412.109 229.685 411.979 229.36 411.719 229.1C411.46 228.97 411.33 228.71 411.33 228.32V227.736C411.719 226.176 411.524 224.616 410.745 223.056C410.226 222.276 410.031 221.496 410.161 220.716C410.161 219.676 409.707 218.896 408.798 218.376C408.149 217.726 407.564 216.946 407.045 216.036C406.526 215.126 406.201 214.216 406.071 213.306C405.941 212.656 405.876 212.006 405.876 211.356C405.876 210.706 405.876 210.121 405.876 209.601C405.876 209.081 405.941 208.756 406.071 208.626C406.591 208.106 406.85 207.521 406.85 206.871C406.85 206.091 406.915 205.506 407.045 205.116C407.175 204.986 407.305 204.921 407.435 204.921C407.564 204.921 407.694 204.856 407.824 204.726C408.343 204.596 408.603 204.141 408.603 203.361C408.343 202.841 408.214 202.386 408.214 201.996C408.084 201.476 408.278 201.021 408.798 200.631C409.058 200.111 409.382 199.982 409.772 200.241C410.681 200.631 411.719 200.501 412.888 199.851C413.407 199.592 413.732 199.462 413.862 199.462C414.251 199.462 414.446 199.462 414.446 199.462C414.576 199.332 414.965 199.267 415.614 199.267C416.393 199.397 417.108 199.137 417.757 198.487C418.666 197.577 419.769 197.122 421.068 197.122H433.143C436.129 197.252 439.115 197.252 442.102 197.122C445.088 196.992 448.009 196.927 450.866 196.927C451.515 196.927 452.035 196.927 452.424 196.927C452.943 196.797 453.463 196.667 453.982 196.537C454.761 196.147 455.67 195.952 456.709 195.952H461.188C462.227 195.952 463.136 195.952 463.915 195.952C464.824 195.822 465.733 195.692 466.642 195.562C467.161 195.432 467.615 195.367 468.005 195.367C468.524 195.367 469.044 195.367 469.563 195.367C470.082 195.367 470.602 195.367 471.121 195.367C471.64 195.367 472.16 195.302 472.679 195.172C473.718 195.042 474.821 194.977 475.99 194.977C477.159 194.847 478.262 194.782 479.301 194.782C479.82 194.782 480.275 194.782 480.664 194.782C481.184 194.652 481.703 194.522 482.222 194.392C483.261 194.132 484.235 194.002 485.144 194.002C486.182 193.872 487.156 193.742 488.065 193.612C489.104 193.482 490.078 193.352 490.986 193.222C492.025 193.092 492.999 192.962 493.908 192.832C495.076 192.832 495.92 192.962 496.44 193.222C497.219 193.742 497.933 194.197 498.582 194.587C499.361 194.977 500.075 195.497 500.724 196.147C501.244 196.667 501.568 197.122 501.698 197.512C501.828 198.032 501.958 198.552 502.088 199.072C502.218 199.592 502.347 200.176 502.477 200.826V202.191C502.347 202.841 502.218 203.556 502.088 204.336C502.088 204.986 502.023 205.701 501.893 206.481C501.633 207.001 501.309 207.456 500.919 207.846L497.414 211.356C496.115 211.746 494.817 212.006 493.518 212.136C492.35 212.266 491.116 212.266 489.818 212.136H488.455C487.805 212.266 487.156 212.331 486.507 212.331C485.858 212.331 485.209 212.266 484.559 212.136C483.78 212.006 483.001 212.006 482.222 212.136C481.443 212.136 480.664 212.136 479.885 212.136C479.366 212.136 478.846 212.201 478.327 212.331C477.938 212.331 477.483 212.266 476.964 212.136C476.315 212.006 475.665 212.006 475.016 212.136C474.497 212.136 473.913 212.201 473.263 212.331C472.744 212.331 472.16 212.396 471.511 212.526C470.991 212.526 470.407 212.526 469.758 212.526C468.07 212.786 466.252 212.916 464.304 212.916C462.487 212.916 460.669 213.046 458.851 213.306C457.683 213.176 456.579 213.241 455.54 213.501C454.501 213.631 453.398 213.761 452.229 213.891C451.191 214.021 450.087 214.086 448.918 214.086C447.75 214.086 446.646 214.216 445.607 214.476C444.309 214.476 443.011 214.671 441.712 215.061C440.544 215.321 439.31 215.516 438.012 215.646L436.648 215.841C435.74 215.841 434.896 215.971 434.117 216.231C433.338 216.361 432.494 216.556 431.585 216.816C431.065 216.946 430.546 217.076 430.027 217.206C429.507 217.206 428.923 217.271 428.274 217.401C427.884 217.401 427.43 217.531 426.91 217.791C426.521 217.921 426.326 218.311 426.326 218.961L426.91 220.716C427.04 220.976 426.975 221.626 426.716 222.666C426.586 223.706 426.456 224.486 426.326 225.006C426.326 225.396 426.391 225.786 426.521 226.176C426.651 226.566 426.781 226.956 426.91 227.346C427.3 228.385 427.495 229.555 427.495 230.855C427.495 232.025 427.625 233.13 427.884 234.17C428.014 234.69 428.079 235.275 428.079 235.925C428.079 236.445 428.144 237.03 428.274 237.68C428.274 237.94 428.274 238.265 428.274 238.655C428.404 238.915 428.469 239.24 428.469 239.63C428.469 240.02 428.404 240.28 428.274 240.41C427.884 240.93 427.69 241.515 427.69 242.165C427.69 242.815 427.69 243.465 427.69 244.115C428.339 245.415 428.663 246.715 428.663 248.015C428.663 249.315 428.663 250.615 428.663 251.915C428.663 252.305 428.988 252.435 429.637 252.305H429.832C430.092 251.785 430.351 251.395 430.611 251.135C431 251.135 431.455 251.005 431.974 250.745C432.364 250.485 432.883 250.355 433.532 250.355C434.571 250.485 435.545 250.485 436.454 250.355C437.363 250.095 438.272 249.835 439.18 249.575C445.283 248.015 450.996 246 456.319 243.53C457.747 242.88 459.241 242.36 460.799 241.97C462.357 241.45 463.915 241.125 465.473 240.995H466.057C467.226 240.865 468.394 240.735 469.563 240.605C470.731 240.475 471.9 240.41 473.069 240.41C474.627 240.28 476.12 240.085 477.548 239.825C479.106 239.565 480.664 239.37 482.222 239.24C483.131 238.98 483.975 238.785 484.754 238.655C485.533 238.395 486.377 238.07 487.286 237.68C488.974 237.03 490.532 236.705 491.96 236.705C492.999 236.835 493.973 237.095 494.882 237.485C495.791 237.745 496.699 238.135 497.608 238.655C499.556 239.955 500.53 241.905 500.53 244.505C500.53 245.545 500.4 246.585 500.14 247.625C500.01 248.665 499.945 249.705 499.945 250.745C499.945 251.005 499.816 251.265 499.556 251.525L498.972 252.5C498.842 253.02 498.712 253.54 498.582 254.06C498.452 254.58 498.128 254.97 497.608 255.229C496.829 255.879 495.985 256.594 495.076 257.374C494.297 258.024 493.389 258.479 492.35 258.739C491.83 258.869 491.311 258.999 490.792 259.129C490.402 259.259 489.948 259.324 489.428 259.324C487.351 259.324 485.209 259.454 483.001 259.714C480.924 259.974 478.782 260.234 476.574 260.494C474.886 260.624 473.198 260.819 471.511 261.079C469.952 261.339 468.329 261.469 466.642 261.469C465.083 261.469 463.331 261.794 461.383 262.444C460.085 262.704 458.721 262.964 457.293 263.224C455.865 263.484 454.437 263.679 453.008 263.809C451.97 263.939 450.866 264.134 449.697 264.394C448.659 264.524 447.62 264.654 446.581 264.784L443.27 265.369C443.011 265.499 442.621 265.564 442.102 265.564C441.193 265.824 440.284 266.019 439.375 266.149C438.466 266.279 437.557 266.474 436.648 266.734C435.74 266.864 434.831 267.059 433.922 267.319C433.143 267.579 432.299 267.839 431.39 268.099C430.741 268.229 430.221 268.489 429.832 268.879C429.442 269.139 429.118 269.529 428.858 270.049C428.728 270.439 428.728 270.829 428.858 271.219C428.988 271.739 428.923 272.259 428.663 272.779C428.793 274.079 428.858 275.379 428.858 276.679C428.988 277.979 428.988 279.279 428.858 280.579C429.118 281.619 429.183 282.658 429.053 283.698C429.053 284.738 428.988 285.778 428.858 286.818C428.598 288.378 428.663 289.678 429.053 290.718C429.442 292.408 429.313 294.163 428.663 295.983C428.404 296.763 428.404 297.283 428.663 297.543C428.923 297.933 428.923 298.388 428.663 298.908V300.078C428.533 301.118 428.988 301.638 430.027 301.638H430.416C431.325 301.638 432.234 301.963 433.143 302.613C433.792 303.263 434.571 303.458 435.48 303.198L440.933 302.613C441.712 302.483 442.491 302.418 443.27 302.418C444.049 302.288 444.828 302.223 445.607 302.223C445.867 302.093 446.257 302.158 446.776 302.418C447.425 302.808 448.01 302.873 448.529 302.613C448.789 302.353 449.113 302.158 449.503 302.028C450.022 301.898 450.412 301.703 450.671 301.443C451.45 300.663 452.424 300.403 453.593 300.663C454.631 300.923 455.475 300.858 456.125 300.468C457.293 300.078 458.397 299.948 459.435 300.078C460.085 300.208 460.734 300.143 461.383 299.883C462.032 299.623 462.681 299.493 463.331 299.493C463.59 299.493 463.785 299.558 463.915 299.688C464.045 299.688 464.175 299.623 464.304 299.493C464.564 299.493 464.824 299.428 465.083 299.298C465.343 299.168 465.538 299.103 465.668 299.103C466.577 298.713 467.421 298.583 468.2 298.713C468.849 298.713 469.173 298.713 469.173 298.713C469.693 298.583 470.147 298.583 470.537 298.713C471.056 298.843 471.511 299.038 471.9 299.298C472.549 299.428 473.069 299.623 473.458 299.883C473.977 300.143 474.497 300.338 475.016 300.468C475.276 300.468 475.471 300.533 475.6 300.663C476.25 301.183 477.029 301.638 477.938 302.028C478.976 302.418 479.561 302.873 479.69 303.393C479.95 304.173 480.08 304.953 480.08 305.733C480.08 306.383 480.145 307.098 480.275 307.878C480.275 308.268 480.21 308.658 480.08 309.048C480.08 309.438 480.015 309.828 479.885 310.218C479.626 310.737 479.301 311.322 478.911 311.972C478.652 312.622 478.262 313.207 477.743 313.727C477.483 313.987 477.223 314.247 476.964 314.507C476.834 314.767 476.639 315.027 476.38 315.287C475.86 315.807 475.276 316.262 474.627 316.652C473.977 317.042 473.263 317.237 472.484 317.237C471.965 317.237 471.575 317.302 471.316 317.432C470.796 317.692 470.277 317.822 469.758 317.822C469.238 317.822 468.654 317.822 468.005 317.822C467.096 317.952 466.187 318.082 465.278 318.212C464.499 318.212 463.655 318.147 462.746 318.017C462.227 317.887 461.773 317.887 461.383 318.017C460.085 318.407 458.786 318.472 457.488 318.212C456.189 318.212 454.891 318.277 453.593 318.407C452.424 318.407 451.256 318.407 450.087 318.407H447.555C447.166 318.407 446.841 318.472 446.581 318.602C446.062 318.862 445.413 318.992 444.634 318.992C443.984 318.992 443.335 318.927 442.686 318.797H440.738C440.609 318.797 440.414 318.797 440.154 318.797C439.894 318.927 439.635 318.927 439.375 318.797C438.986 318.667 438.596 318.602 438.207 318.602C437.947 318.732 437.622 318.862 437.233 318.992C436.973 318.992 436.713 318.992 436.454 318.992C436.324 319.122 436.129 319.187 435.869 319.187C434.571 319.057 433.338 319.057 432.169 319.187C431 319.447 429.767 319.707 428.469 319.967Z" fill="#FFCC47"/>
<path d="M558.23 318.407C557.971 318.277 557.581 318.212 557.062 318.212C556.802 318.212 556.542 318.017 556.283 317.627C556.023 317.237 555.763 316.912 555.504 316.652C555.244 316.262 554.984 315.807 554.725 315.287C554.335 314.767 554.011 314.767 553.751 315.287H553.361C553.361 315.157 553.296 315.092 553.167 315.092C553.167 314.962 553.167 314.897 553.167 314.897C552.777 313.077 552.193 311.387 551.414 309.827C551.024 308.788 550.635 307.748 550.245 306.708C549.986 305.538 549.791 304.368 549.661 303.198L548.492 294.618L547.908 287.598V287.208C547.648 285.648 547.519 284.088 547.519 282.529C547.519 280.839 547.519 279.149 547.519 277.459C547.389 276.549 547.324 275.704 547.324 274.924C547.324 274.014 547.259 273.104 547.129 272.194C546.999 271.154 546.869 270.114 546.74 269.074C546.74 268.034 546.74 267.059 546.74 266.149L546.934 250.745V229.88C546.675 229.1 546.285 228.71 545.766 228.71C545.506 228.71 545.182 228.775 544.792 228.905C544.532 228.905 544.273 228.905 544.013 228.905L535.249 231.245C534.08 231.635 532.912 232.025 531.743 232.415C530.574 232.675 529.406 233 528.237 233.39C527.328 233.52 526.42 233.65 525.511 233.78C524.732 233.78 523.888 233.78 522.979 233.78C522.33 233.78 521.616 233.52 520.836 233C519.928 232.61 519.149 232.09 518.499 231.44C517.85 230.79 517.201 230.075 516.552 229.295L516.162 228.71C515.903 227.8 515.643 226.956 515.383 226.176C515.253 225.266 515.253 224.356 515.383 223.446C515.513 222.276 515.773 221.171 516.162 220.131C516.682 219.091 517.396 218.181 518.305 217.401C518.694 217.141 519.019 216.816 519.278 216.426C519.668 216.036 520.057 215.646 520.447 215.256C520.966 214.996 521.291 214.866 521.421 214.866C522.2 214.866 522.914 214.736 523.563 214.476C524.212 214.086 524.862 213.826 525.511 213.696C526.16 213.566 526.809 213.436 527.458 213.306C528.108 213.176 528.757 213.046 529.406 212.916C531.224 212.396 533.041 211.941 534.859 211.551C536.677 211.031 538.495 210.641 540.312 210.381L550.829 208.626C551.089 208.496 551.284 208.431 551.414 208.431C551.673 208.431 551.868 208.366 551.998 208.236C552.777 207.976 553.556 207.781 554.335 207.651C555.114 207.521 555.893 207.586 556.672 207.846C556.932 207.976 557.127 208.041 557.257 208.041C557.516 207.911 557.711 207.846 557.841 207.846C560.048 207.586 562.255 207.326 564.463 207.066C566.67 206.806 568.812 206.481 570.89 206.091C572.578 205.831 574.266 205.571 575.953 205.311C577.641 205.051 579.329 204.856 581.017 204.726C582.316 204.466 583.614 204.271 584.912 204.141C586.211 204.011 587.509 203.881 588.808 203.751C589.846 203.621 590.885 203.491 591.924 203.361C593.092 203.231 594.196 203.101 595.235 202.971C596.273 202.841 597.247 202.841 598.156 202.971C599.195 202.971 600.234 202.971 601.272 202.971C601.922 202.971 602.506 203.166 603.025 203.556C603.674 203.946 604.259 204.271 604.778 204.531C605.297 204.921 606.011 205.571 606.92 206.481C607.18 206.741 607.44 207.326 607.699 208.236C607.829 208.626 607.959 209.081 608.089 209.601C608.219 209.991 608.349 210.446 608.478 210.966C608.738 212.136 608.608 213.241 608.089 214.281L606.92 217.011C606.791 217.401 606.596 217.791 606.336 218.181C606.206 218.441 606.012 218.701 605.752 218.961C605.492 219.221 605.362 219.351 605.362 219.351C604.843 219.741 604.259 220.131 603.609 220.521C603.09 220.911 602.441 221.171 601.662 221.301L593.287 221.886C592.508 221.886 591.729 221.951 590.95 222.081C590.171 222.081 589.327 222.146 588.418 222.276H587.444C585.367 222.406 583.354 222.601 581.407 222.861C579.459 223.121 577.512 223.381 575.564 223.641L567.774 224.811C567.384 224.811 567.124 224.876 566.995 225.006C566.475 225.006 566.086 225.396 565.826 226.176V226.761C565.826 228.06 565.826 229.36 565.826 230.66C565.826 231.83 565.891 233.065 566.021 234.365C566.41 236.185 566.41 238.005 566.021 239.825C565.891 240.215 565.761 240.605 565.631 240.995C565.631 241.255 565.631 241.515 565.631 241.775C565.761 243.335 565.631 245.025 565.242 246.845C565.242 247.235 565.242 247.625 565.242 248.015C565.242 248.405 565.307 248.795 565.437 249.185C565.566 249.705 565.631 250.29 565.631 250.94C565.631 251.59 565.631 252.24 565.631 252.89V263.029C565.631 263.549 565.566 264.199 565.437 264.979C565.437 265.629 565.437 266.279 565.437 266.929C565.437 267.449 565.437 268.034 565.437 268.684C565.566 269.334 565.631 269.984 565.631 270.634C565.631 271.544 565.631 272.454 565.631 273.364C565.761 274.274 565.761 275.249 565.631 276.289V282.333C565.631 282.463 565.566 282.594 565.437 282.724C565.437 282.854 565.501 283.048 565.631 283.308C565.761 284.478 565.826 285.713 565.826 287.013C565.826 288.183 565.956 289.353 566.216 290.523C566.216 290.913 566.216 291.303 566.216 291.693C566.345 292.083 566.345 292.473 566.216 292.863C566.216 294.033 566.345 295.268 566.605 296.568C566.865 297.738 567.059 298.908 567.189 300.078C567.449 301.508 567.709 302.938 567.968 304.368C568.358 305.798 568.683 307.228 568.942 308.658L569.526 311.387C569.526 311.777 569.332 312.102 568.942 312.362C568.942 312.362 568.877 312.362 568.747 312.362C568.747 312.362 568.682 312.427 568.553 312.557C567.903 312.817 567.644 313.207 567.774 313.727V314.702C567.774 314.702 567.709 314.767 567.579 314.897C567.579 315.027 567.514 315.092 567.384 315.092C566.735 315.092 566.216 315.352 565.826 315.872C565.436 316.392 564.982 316.847 564.463 317.237C564.073 317.497 563.554 317.757 562.905 318.017C561.217 318.667 559.659 318.797 558.23 318.407Z" fill="#FFCC47"/>
<path d="M733.68 320.552C732.901 320.422 732.122 320.357 731.343 320.357C730.564 320.357 729.85 320.162 729.201 319.772C728.162 319.382 727.318 318.927 726.669 318.407C725.37 317.237 724.202 315.872 723.163 314.312C723.033 314.052 722.903 313.727 722.773 313.337C722.644 312.947 722.449 312.622 722.189 312.362C721.67 311.192 721.151 310.023 720.631 308.853C720.112 307.683 719.528 306.513 718.878 305.343C718.229 304.173 717.58 303.003 716.931 301.833C716.282 300.663 715.632 299.493 714.983 298.323C714.334 297.153 713.685 295.983 713.036 294.813C712.386 293.643 711.802 292.408 711.283 291.108L710.114 289.158C709.595 288.248 709.075 287.338 708.556 286.428C708.037 285.518 707.647 284.608 707.388 283.698C707.258 283.308 706.933 282.723 706.414 281.944L704.661 279.019C704.271 278.109 703.817 277.199 703.298 276.289C702.908 275.379 702.389 274.534 701.739 273.754L700.571 271.999C698.493 268.619 696.546 265.109 694.728 261.469C694.339 260.689 693.884 259.909 693.365 259.129C692.975 258.349 692.521 257.569 692.001 256.789C691.872 256.269 691.612 255.814 691.222 255.424C690.963 255.034 690.703 254.645 690.443 254.255C690.184 253.865 689.859 253.865 689.47 254.255C689.34 254.645 689.21 255.034 689.08 255.424C688.95 255.684 688.82 256.009 688.691 256.399C688.171 257.829 687.717 259.259 687.327 260.689C686.938 262.119 686.548 263.549 686.159 264.979C685.899 266.279 685.574 267.514 685.185 268.684C684.795 269.854 684.471 271.024 684.211 272.194C684.081 273.104 683.951 274.014 683.822 274.924C683.692 275.704 683.497 276.484 683.237 277.264C683.237 277.654 683.172 278.044 683.043 278.434C683.043 278.694 682.978 279.019 682.848 279.409C682.328 281.359 681.939 283.373 681.679 285.453C681.549 287.403 681.355 289.418 681.095 291.498V292.668C681.225 293.188 681.225 293.643 681.095 294.033C681.095 294.423 681.03 294.813 680.9 295.203C680.511 296.243 680.446 297.413 680.705 298.713C680.835 299.233 680.9 299.753 680.9 300.273C681.03 300.793 681.03 301.313 680.9 301.833C680.77 303.133 680.64 304.433 680.511 305.733C680.511 306.903 680.511 308.073 680.511 309.243C680.511 310.412 680.316 311.582 679.926 312.752C679.667 313.272 679.342 313.597 678.953 313.727C678.433 314.247 678.109 314.702 677.979 315.092C677.849 315.612 677.524 316.002 677.005 316.262C676.615 316.522 676.291 316.782 676.031 317.042C675.901 317.172 675.707 317.237 675.447 317.237C675.057 317.237 674.798 317.302 674.668 317.432C674.278 317.562 673.889 317.692 673.499 317.822C673.24 317.952 672.98 318.082 672.72 318.212C672.331 318.212 671.876 318.212 671.357 318.212C670.967 318.082 670.578 318.017 670.188 318.017C668.76 317.887 667.721 317.692 667.072 317.432C666.423 317.172 665.514 316.327 664.346 314.897C664.216 314.507 664.021 314.182 663.761 313.922C663.502 313.532 663.242 313.142 662.982 312.752C662.073 311.582 661.489 310.282 661.229 308.853C661.1 307.033 660.71 305.213 660.061 303.393C659.541 301.573 658.892 299.818 658.113 298.128C657.983 297.608 657.789 297.088 657.529 296.568C657.399 296.048 657.204 295.593 656.945 295.203C656.036 293.123 655.127 291.108 654.218 289.158C653.439 287.078 652.595 284.998 651.686 282.918C651.556 282.788 651.491 282.659 651.491 282.529C651.491 282.399 651.427 282.269 651.297 282.139C650.518 280.969 649.803 279.799 649.154 278.629C648.635 277.329 648.051 276.029 647.401 274.729C646.752 273.299 645.908 271.804 644.87 270.244C644.61 269.594 644.285 269.009 643.896 268.489C643.636 267.969 643.376 267.449 643.117 266.929C642.987 266.669 642.857 266.344 642.727 265.954C642.727 265.564 642.597 265.239 642.338 264.979C641.299 263.549 640.39 261.989 639.611 260.299C638.962 258.609 638.183 256.984 637.274 255.424L635.132 251.915C634.742 251.265 634.288 250.615 633.768 249.965C633.379 249.315 632.989 248.73 632.6 248.21C632.21 247.56 631.821 247.04 631.431 246.65C631.042 246.13 630.717 245.61 630.457 245.09C629.938 244.31 629.419 243.595 628.899 242.945C628.38 242.165 627.925 241.45 627.536 240.8C627.017 240.02 626.497 239.305 625.978 238.655C625.458 237.875 624.939 237.16 624.42 236.51C623.511 235.08 622.797 233.715 622.277 232.415C622.148 231.765 622.148 231.18 622.277 230.66C622.537 229.62 622.732 228.645 622.862 227.736C623.121 226.696 623.381 225.721 623.641 224.811L624.225 224.031C624.744 223.511 625.199 223.056 625.588 222.666C626.108 222.276 626.627 221.886 627.146 221.496C627.666 221.236 627.99 221.106 628.12 221.106C629.548 220.586 630.912 220.326 632.21 220.326C633.509 220.326 634.807 220.651 636.105 221.301C636.755 221.561 637.404 221.886 638.053 222.276C639.481 223.056 640.39 224.096 640.78 225.396C641.039 226.046 641.299 226.696 641.559 227.346C641.948 227.995 642.208 228.645 642.338 229.295C643.376 232.025 644.805 234.625 646.622 237.095C647.661 238.525 648.765 240.15 649.933 241.97C650.193 242.1 650.388 242.295 650.518 242.555C650.647 242.815 650.777 243.01 650.907 243.14C651.686 244.05 652.4 245.09 653.049 246.26C653.699 247.43 654.283 248.535 654.802 249.575C655.322 250.485 655.711 251.395 655.971 252.305C656.36 253.085 656.75 253.93 657.139 254.84C658.178 257.179 659.152 259.519 660.061 261.859C660.97 264.199 661.879 266.474 662.787 268.684C663.047 269.464 663.372 270.179 663.761 270.829C664.151 271.479 664.475 272.194 664.735 272.974C664.735 272.974 664.735 273.039 664.735 273.169C664.865 273.169 664.93 273.104 664.93 272.974C665.19 272.974 665.319 272.909 665.319 272.779C665.969 271.739 666.358 270.764 666.488 269.854L668.241 263.614C668.5 262.834 668.76 262.054 669.02 261.274C669.279 260.494 669.539 259.649 669.799 258.739C670.578 256.919 671.162 255.099 671.552 253.28C671.682 252.24 672.071 251.135 672.72 249.965C673.11 249.315 673.305 248.6 673.305 247.82L673.889 245.87C674.668 243.53 675.447 241.19 676.226 238.85C677.005 236.51 677.914 234.3 678.953 232.22C679.342 231.44 679.732 230.725 680.121 230.075C680.511 229.295 680.9 228.58 681.29 227.93C681.549 227.411 681.874 226.956 682.263 226.566C682.653 226.176 683.107 225.916 683.627 225.786C684.146 225.136 684.73 224.746 685.38 224.616C686.029 224.486 686.613 224.226 687.133 223.836C687.262 223.706 687.587 223.641 688.106 223.641C688.496 223.641 688.95 223.771 689.47 224.031C690.119 224.291 690.703 224.226 691.222 223.836C691.872 223.316 692.456 223.446 692.975 224.226C693.235 224.746 693.56 225.201 693.949 225.591C694.468 225.851 694.923 226.111 695.312 226.371C695.572 226.631 695.832 226.891 696.091 227.151C696.481 227.411 696.741 227.736 696.87 228.125L703.298 239.24C703.947 240.28 704.596 241.385 705.245 242.555C705.894 243.595 706.479 244.7 706.998 245.87C707.517 246.52 707.907 247.235 708.167 248.015C708.556 248.795 708.946 249.64 709.335 250.55C710.114 252.63 711.218 254.71 712.646 256.789C712.906 257.179 713.165 257.569 713.425 257.959C713.685 258.349 713.88 258.739 714.009 259.129C714.659 260.689 715.373 262.249 716.152 263.809C717.061 265.369 717.905 266.994 718.684 268.684C718.813 268.944 718.943 269.269 719.073 269.659C719.333 270.049 719.528 270.374 719.657 270.634C720.307 272.324 721.086 274.014 721.994 275.704C722.903 277.264 723.812 278.824 724.721 280.384C724.851 280.644 725.176 281.034 725.695 281.554C725.695 281.554 725.76 281.554 725.89 281.554C726.02 281.554 726.084 281.489 726.084 281.359C726.214 281.229 726.409 280.904 726.669 280.384C727.058 279.214 727.448 278.109 727.837 277.069C728.227 275.899 728.486 274.729 728.616 273.559C728.876 272.519 729.136 271.674 729.395 271.024C730.045 268.944 730.629 266.929 731.148 264.979C731.668 262.899 732.187 260.819 732.706 258.739C732.966 257.959 733.226 257.179 733.485 256.399C733.745 255.489 734.005 254.645 734.264 253.865C735.043 251.135 735.822 248.47 736.602 245.87C737.381 243.14 738.095 240.41 738.744 237.68L741.081 227.93C741.341 227.151 741.341 226.371 741.081 225.591C740.821 224.941 740.886 224.421 741.276 224.031C741.795 223.381 742.185 222.666 742.444 221.886C742.704 221.106 742.964 220.391 743.223 219.741C743.613 218.441 744.132 217.011 744.781 215.451C744.911 215.061 745.106 214.671 745.366 214.281C745.625 213.891 745.82 213.501 745.95 213.111C746.469 212.331 747.054 211.876 747.703 211.746C748.092 211.486 748.482 211.291 748.871 211.161C749.261 210.901 749.65 210.706 750.04 210.576C750.17 210.446 750.3 210.381 750.429 210.381C750.689 210.381 750.884 210.316 751.014 210.186C751.663 209.926 752.312 209.796 752.961 209.796C753.74 209.666 754.39 209.406 754.909 209.016C755.688 208.496 756.597 208.561 757.635 209.211C758.674 209.991 759.518 210.706 760.167 211.356C760.946 212.136 761.466 213.306 761.726 214.866C761.855 215.256 761.92 215.646 761.92 216.036C761.92 216.426 761.92 216.816 761.92 217.206C761.661 220.066 761.076 222.861 760.167 225.591C759.908 226.371 759.648 227.216 759.388 228.125C759.129 228.905 758.869 229.685 758.609 230.465C758.609 230.595 758.544 230.79 758.415 231.05C758.415 231.18 758.415 231.375 758.415 231.635C758.285 233.715 757.96 235.795 757.441 237.875C756.921 239.955 756.337 241.97 755.688 243.92C755.169 245.61 754.714 247.3 754.325 248.99C753.935 250.68 753.481 252.37 752.961 254.06C752.831 254.32 752.702 254.71 752.572 255.229C752.572 255.619 752.442 255.944 752.182 256.204C751.793 256.984 751.533 257.829 751.403 258.739C751.273 259.519 751.079 260.364 750.819 261.274C750.689 261.794 750.559 262.314 750.429 262.834C750.429 263.224 750.3 263.679 750.04 264.199C749.65 265.629 749.261 267.124 748.871 268.684C748.482 270.114 748.157 271.544 747.898 272.974L746.145 279.604C746.015 280.124 745.885 280.644 745.755 281.164C745.755 281.554 745.69 282.009 745.56 282.529C745.56 282.918 745.496 283.308 745.366 283.698C745.366 284.088 745.301 284.543 745.171 285.063C745.041 285.843 744.846 286.688 744.587 287.598C744.457 288.378 744.327 289.223 744.197 290.133C744.067 291.043 743.937 291.953 743.808 292.863C743.678 293.643 743.548 294.553 743.418 295.593C743.418 296.113 743.353 296.633 743.223 297.153C743.223 297.673 743.223 298.258 743.223 298.908L742.639 303.003C742.639 304.303 742.574 305.538 742.444 306.708C742.314 307.878 742.12 309.113 741.86 310.413C741.73 310.673 741.665 310.997 741.665 311.387C741.665 311.777 741.665 312.102 741.665 312.362C741.665 313.532 741.406 314.442 740.886 315.092C740.756 315.482 740.562 315.872 740.302 316.262C740.042 316.652 739.783 317.042 739.523 317.432L738.549 318.407C738.16 318.537 737.77 318.732 737.381 318.992C736.991 319.382 736.601 319.707 736.212 319.967C735.433 320.357 734.589 320.552 733.68 320.552Z" fill="#FFCC47"/>
<path d="M802.392 319.967C801.613 319.967 801.094 319.902 800.834 319.772C800.185 319.512 799.536 319.382 798.887 319.382C798.367 319.512 797.783 319.577 797.134 319.577C797.004 319.577 796.874 319.577 796.744 319.577C796.614 319.707 796.485 319.772 796.355 319.772C795.446 319.902 794.537 319.967 793.628 319.967C792.849 319.967 792.07 319.837 791.291 319.577C791.161 319.447 791.031 319.382 790.901 319.382C789.992 319.512 789.214 319.252 788.564 318.602C787.915 317.952 787.266 317.367 786.617 316.847C785.967 316.197 785.643 315.482 785.643 314.702L785.059 313.142C784.669 312.232 784.539 311.387 784.669 310.607C784.799 310.347 784.799 310.087 784.669 309.827C784.669 309.567 784.669 309.308 784.669 309.048C784.539 308.788 784.474 308.528 784.474 308.268C784.474 307.878 784.409 307.553 784.28 307.293C784.02 306.123 783.825 304.953 783.695 303.783C783.695 302.483 783.76 301.248 783.89 300.078C784.02 299.298 784.474 297.998 785.253 296.178C786.032 294.228 786.487 293.058 786.617 292.668C787.006 292.018 787.201 291.498 787.201 291.108C787.071 289.678 787.006 288.248 787.006 286.818C787.136 285.258 787.201 283.763 787.201 282.333C787.201 281.424 787.396 280.709 787.785 280.189C788.305 279.279 788.37 278.304 787.98 277.264L787.396 275.119C786.617 273.689 786.682 272.454 787.591 271.414C787.591 271.284 787.591 271.219 787.591 271.219C787.72 271.089 787.785 270.959 787.785 270.829C788.045 270.569 788.11 270.244 787.98 269.854C787.85 269.334 787.785 268.944 787.785 268.684C787.785 268.164 787.85 267.644 787.98 267.124C788.24 266.474 788.305 265.889 788.175 265.369C788.175 265.369 788.045 265.239 787.785 264.979C787.655 264.719 787.591 264.199 787.591 263.419C787.72 262.639 787.785 262.184 787.785 262.054V256.594C787.915 255.944 787.98 255.36 787.98 254.84C787.98 254.19 788.045 253.54 788.175 252.89C788.305 252.11 788.305 251.33 788.175 250.55C788.175 249.64 788.175 248.73 788.175 247.82C788.045 247.17 787.915 246.455 787.785 245.675C787.785 244.895 787.785 244.115 787.785 243.335C787.655 243.075 787.591 242.75 787.591 242.36C787.591 241.97 787.591 241.645 787.591 241.385C787.461 240.735 787.331 240.085 787.201 239.435C787.201 238.785 787.201 238.135 787.201 237.485C787.201 237.225 786.941 236.38 786.422 234.95C785.903 233.39 785.708 232.09 785.838 231.05C785.968 230.79 786.032 230.465 786.032 230.075C786.032 229.685 785.903 229.36 785.643 229.1C785.383 228.97 785.253 228.71 785.253 228.32V227.736C785.643 226.176 785.448 224.616 784.669 223.056C784.15 222.276 783.955 221.496 784.085 220.716C784.085 219.676 783.63 218.896 782.721 218.376C782.072 217.726 781.488 216.946 780.969 216.036C780.449 215.126 780.125 214.216 779.995 213.306C779.865 212.656 779.8 212.006 779.8 211.356C779.8 210.706 779.8 210.121 779.8 209.601C779.8 209.081 779.865 208.756 779.995 208.626C780.514 208.106 780.774 207.521 780.774 206.871C780.774 206.091 780.839 205.506 780.969 205.116C781.098 204.986 781.228 204.921 781.358 204.921C781.488 204.921 781.618 204.856 781.748 204.726C782.267 204.596 782.527 204.141 782.527 203.361C782.267 202.841 782.137 202.386 782.137 201.996C782.007 201.476 782.202 201.021 782.721 200.631C782.981 200.111 783.306 199.982 783.695 200.241C784.604 200.631 785.643 200.501 786.811 199.851C787.331 199.592 787.655 199.462 787.785 199.462C788.175 199.462 788.37 199.462 788.37 199.462C788.499 199.332 788.889 199.267 789.538 199.267C790.317 199.397 791.031 199.137 791.68 198.487C792.589 197.577 793.693 197.122 794.991 197.122H807.067C810.053 197.252 813.039 197.252 816.025 197.122C819.012 196.992 821.933 196.927 824.79 196.927C825.439 196.927 825.958 196.927 826.348 196.927C826.867 196.797 827.386 196.667 827.906 196.537C828.685 196.147 829.594 195.952 830.632 195.952H835.112C836.151 195.952 837.06 195.952 837.839 195.952C838.747 195.822 839.656 195.692 840.565 195.562C841.085 195.432 841.539 195.367 841.928 195.367C842.448 195.367 842.967 195.367 843.487 195.367C844.006 195.367 844.525 195.367 845.045 195.367C845.564 195.367 846.083 195.302 846.603 195.172C847.642 195.042 848.745 194.977 849.914 194.977C851.082 194.847 852.186 194.782 853.225 194.782C853.744 194.782 854.198 194.782 854.588 194.782C855.107 194.652 855.627 194.522 856.146 194.392C857.185 194.132 858.158 194.002 859.067 194.002C860.106 193.872 861.08 193.742 861.989 193.612C863.027 193.482 864.001 193.352 864.91 193.222C865.949 193.092 866.923 192.962 867.832 192.832C869 192.832 869.844 192.962 870.363 193.222C871.142 193.742 871.857 194.197 872.506 194.587C873.285 194.977 873.999 195.497 874.648 196.147C875.168 196.667 875.492 197.122 875.622 197.512C875.752 198.032 875.882 198.552 876.011 199.072C876.141 199.592 876.271 200.176 876.401 200.826V202.191C876.271 202.841 876.141 203.556 876.011 204.336C876.011 204.986 875.947 205.701 875.817 206.481C875.557 207.001 875.232 207.456 874.843 207.846L871.337 211.356C870.039 211.746 868.74 212.006 867.442 212.136C866.274 212.266 865.04 212.266 863.742 212.136H862.378C861.729 212.266 861.08 212.331 860.431 212.331C859.781 212.331 859.132 212.266 858.483 212.136C857.704 212.006 856.925 212.006 856.146 212.136C855.367 212.136 854.588 212.136 853.809 212.136C853.29 212.136 852.77 212.201 852.251 212.331C851.861 212.331 851.407 212.266 850.887 212.136C850.238 212.006 849.589 212.006 848.94 212.136C848.42 212.136 847.836 212.201 847.187 212.331C846.668 212.331 846.083 212.396 845.434 212.526C844.915 212.526 844.331 212.526 843.681 212.526C841.993 212.786 840.176 212.916 838.228 212.916C836.41 212.916 834.593 213.046 832.775 213.306C831.606 213.176 830.503 213.241 829.464 213.501C828.425 213.631 827.322 213.761 826.153 213.891C825.114 214.021 824.011 214.086 822.842 214.086C821.673 214.086 820.57 214.216 819.531 214.476C818.233 214.476 816.934 214.671 815.636 215.061C814.467 215.321 813.234 215.516 811.935 215.646L810.572 215.841C809.663 215.841 808.819 215.971 808.04 216.231C807.261 216.361 806.417 216.556 805.508 216.816C804.989 216.946 804.47 217.076 803.95 217.206C803.431 217.206 802.847 217.271 802.198 217.401C801.808 217.401 801.354 217.531 800.834 217.791C800.445 217.921 800.25 218.311 800.25 218.961L800.834 220.716C800.964 220.976 800.899 221.626 800.639 222.666C800.51 223.706 800.38 224.486 800.25 225.006C800.25 225.396 800.315 225.786 800.445 226.176C800.574 226.566 800.704 226.956 800.834 227.346C801.224 228.385 801.418 229.555 801.418 230.855C801.418 232.025 801.548 233.13 801.808 234.17C801.938 234.69 802.003 235.275 802.003 235.925C802.003 236.445 802.068 237.03 802.198 237.68C802.198 237.94 802.198 238.265 802.198 238.655C802.327 238.915 802.392 239.24 802.392 239.63C802.392 240.02 802.327 240.28 802.198 240.41C801.808 240.93 801.613 241.515 801.613 242.165C801.613 242.815 801.613 243.465 801.613 244.115C802.262 245.415 802.587 246.715 802.587 248.015C802.587 249.315 802.587 250.615 802.587 251.915C802.587 252.305 802.912 252.435 803.561 252.305H803.756C804.015 251.785 804.275 251.395 804.535 251.135C804.924 251.135 805.379 251.005 805.898 250.745C806.287 250.485 806.807 250.355 807.456 250.355C808.495 250.485 809.469 250.485 810.377 250.355C811.286 250.095 812.195 249.835 813.104 249.575C819.207 248.015 824.919 246 830.243 243.53C831.671 242.88 833.164 242.36 834.722 241.97C836.28 241.45 837.839 241.125 839.397 240.995H839.981C841.149 240.865 842.318 240.735 843.487 240.605C844.655 240.475 845.824 240.41 846.992 240.41C848.55 240.28 850.044 240.085 851.472 239.825C853.03 239.565 854.588 239.37 856.146 239.24C857.055 238.98 857.899 238.785 858.678 238.655C859.457 238.395 860.301 238.07 861.21 237.68C862.898 237.03 864.456 236.705 865.884 236.705C866.923 236.835 867.896 237.095 868.805 237.485C869.714 237.745 870.623 238.135 871.532 238.655C873.48 239.955 874.453 241.905 874.453 244.505C874.453 245.545 874.324 246.585 874.064 247.625C873.934 248.665 873.869 249.705 873.869 250.745C873.869 251.005 873.739 251.265 873.48 251.525L872.895 252.5C872.765 253.02 872.636 253.54 872.506 254.06C872.376 254.58 872.051 254.97 871.532 255.229C870.753 255.879 869.909 256.594 869 257.374C868.221 258.024 867.312 258.479 866.273 258.739C865.754 258.869 865.235 258.999 864.715 259.129C864.326 259.259 863.871 259.324 863.352 259.324C861.275 259.324 859.132 259.454 856.925 259.714C854.848 259.974 852.705 260.234 850.498 260.494C848.81 260.624 847.122 260.819 845.434 261.079C843.876 261.339 842.253 261.469 840.565 261.469C839.007 261.469 837.254 261.794 835.307 262.444C834.008 262.704 832.645 262.964 831.217 263.224C829.788 263.484 828.36 263.679 826.932 263.809C825.893 263.939 824.79 264.134 823.621 264.394C822.582 264.524 821.544 264.654 820.505 264.784L817.194 265.369C816.934 265.499 816.545 265.564 816.025 265.564C815.117 265.824 814.208 266.019 813.299 266.149C812.39 266.279 811.481 266.474 810.572 266.734C809.663 266.864 808.754 267.059 807.846 267.319C807.066 267.579 806.223 267.839 805.314 268.099C804.664 268.229 804.145 268.489 803.756 268.879C803.366 269.139 803.041 269.529 802.782 270.049C802.652 270.439 802.652 270.829 802.782 271.219C802.912 271.739 802.847 272.259 802.587 272.779C802.717 274.079 802.782 275.379 802.782 276.679C802.912 277.979 802.912 279.279 802.782 280.579C803.041 281.619 803.106 282.658 802.977 283.698C802.977 284.738 802.912 285.778 802.782 286.818C802.522 288.378 802.587 289.678 802.977 290.718C803.366 292.408 803.236 294.163 802.587 295.983C802.327 296.763 802.327 297.283 802.587 297.543C802.847 297.933 802.847 298.388 802.587 298.908V300.078C802.457 301.118 802.912 301.638 803.95 301.638H804.34C805.249 301.638 806.158 301.963 807.067 302.613C807.716 303.263 808.495 303.458 809.404 303.198L814.857 302.613C815.636 302.483 816.415 302.418 817.194 302.418C817.973 302.288 818.752 302.223 819.531 302.223C819.791 302.093 820.18 302.158 820.7 302.418C821.349 302.808 821.933 302.873 822.453 302.613C822.712 302.353 823.037 302.158 823.426 302.028C823.946 301.898 824.335 301.703 824.595 301.443C825.374 300.663 826.348 300.403 827.516 300.663C828.555 300.923 829.399 300.858 830.048 300.468C831.217 300.078 832.32 299.948 833.359 300.078C834.008 300.208 834.658 300.143 835.307 299.883C835.956 299.623 836.605 299.493 837.254 299.493C837.514 299.493 837.709 299.558 837.839 299.688C837.968 299.688 838.098 299.623 838.228 299.493C838.488 299.493 838.747 299.428 839.007 299.298C839.267 299.168 839.462 299.103 839.591 299.103C840.5 298.713 841.344 298.583 842.123 298.713C842.772 298.713 843.097 298.713 843.097 298.713C843.616 298.583 844.071 298.583 844.46 298.713C844.98 298.843 845.434 299.038 845.824 299.298C846.473 299.428 846.992 299.623 847.382 299.883C847.901 300.143 848.42 300.338 848.94 300.468C849.199 300.468 849.394 300.533 849.524 300.663C850.173 301.183 850.952 301.638 851.861 302.028C852.9 302.418 853.484 302.873 853.614 303.393C853.874 304.173 854.004 304.953 854.004 305.733C854.004 306.383 854.069 307.098 854.198 307.878C854.198 308.268 854.133 308.658 854.004 309.048C854.004 309.438 853.939 309.828 853.809 310.218C853.549 310.737 853.225 311.322 852.835 311.972C852.575 312.622 852.186 313.207 851.667 313.727C851.407 313.987 851.147 314.247 850.887 314.507C850.758 314.767 850.563 315.027 850.303 315.287C849.784 315.807 849.2 316.262 848.55 316.652C847.901 317.042 847.187 317.237 846.408 317.237C845.889 317.237 845.499 317.302 845.239 317.432C844.72 317.692 844.201 317.822 843.681 317.822C843.162 317.822 842.578 317.822 841.928 317.822C841.02 317.952 840.111 318.082 839.202 318.212C838.423 318.212 837.579 318.147 836.67 318.017C836.151 317.887 835.696 317.887 835.307 318.017C834.008 318.407 832.71 318.472 831.411 318.212C830.113 318.212 828.815 318.277 827.516 318.407C826.348 318.407 825.179 318.407 824.011 318.407H821.479C821.089 318.407 820.765 318.472 820.505 318.602C819.986 318.862 819.336 318.992 818.557 318.992C817.908 318.992 817.259 318.927 816.61 318.797H814.662C814.532 318.797 814.338 318.797 814.078 318.797C813.818 318.927 813.558 318.927 813.299 318.797C812.909 318.667 812.52 318.602 812.13 318.602C811.871 318.732 811.546 318.862 811.156 318.992C810.897 318.992 810.637 318.992 810.377 318.992C810.248 319.122 810.053 319.187 809.793 319.187C808.495 319.057 807.261 319.057 806.093 319.187C804.924 319.447 803.691 319.707 802.392 319.967Z" fill="#FFCC47"/>
<path d="M967.284 332.837C966.115 332.837 965.077 332.382 964.168 331.472C963.908 331.082 963.648 330.692 963.389 330.302C963.129 329.912 962.869 329.522 962.61 329.132C961.441 326.402 960.857 323.542 960.857 320.552L960.272 315.872C959.883 314.052 959.558 312.232 959.299 310.413C959.039 308.593 958.585 306.838 957.935 305.148L956.767 301.833C956.767 301.573 956.702 301.313 956.572 301.053C956.572 300.793 956.507 300.533 956.377 300.273L953.456 289.938C953.326 289.678 953.196 289.353 953.066 288.963C953.066 288.573 952.937 288.248 952.677 287.988C952.287 287.208 951.963 286.428 951.703 285.648C951.573 284.738 951.378 283.828 951.119 282.918C950.989 282.269 950.859 281.684 950.729 281.164C950.599 280.514 950.405 279.864 950.145 279.214C949.885 278.434 949.626 277.979 949.366 277.849C949.106 277.589 948.522 277.589 947.613 277.849C946.964 277.979 946.25 278.109 945.471 278.239C944.822 278.239 944.172 278.369 943.523 278.629C943.004 278.759 942.355 278.889 941.576 279.019C940.926 279.019 940.277 279.084 939.628 279.214L936.901 279.799C936.252 279.929 935.538 280.124 934.759 280.384C934.11 280.514 933.461 280.579 932.811 280.579L929.306 281.164C928.267 281.424 927.163 281.684 925.995 281.944C924.826 282.204 923.723 282.464 922.684 282.724C919.568 283.503 916.452 284.088 913.335 284.478C912.297 284.738 911.712 285.193 911.583 285.843C911.453 285.843 911.388 285.908 911.388 286.038C910.609 288.118 909.7 290.198 908.661 292.278C907.752 294.228 906.778 296.243 905.74 298.323C905.48 298.843 905.22 299.363 904.961 299.883C904.831 300.273 904.636 300.728 904.376 301.248C904.247 301.508 904.117 301.833 903.987 302.223C903.857 302.483 903.727 302.743 903.597 303.003C902.818 303.913 902.429 305.018 902.429 306.318C902.299 307.098 902.039 307.878 901.65 308.658C901.26 309.308 900.871 309.958 900.481 310.607C900.351 310.997 900.092 311.192 899.702 311.192C899.183 311.322 898.663 311.517 898.144 311.777C897.625 312.037 897.04 312.297 896.391 312.557C896.002 312.687 895.612 312.687 895.223 312.557C894.963 312.427 894.638 312.297 894.249 312.167C893.989 311.907 893.73 311.777 893.47 311.777C892.042 311.647 891.003 310.802 890.354 309.243C889.315 307.163 888.601 305.083 888.211 303.003C888.082 302.483 888.082 302.028 888.211 301.638C888.471 301.248 888.666 300.858 888.796 300.468C889.575 299.948 890.029 299.363 890.159 298.713V298.518C890.159 296.828 890.484 295.268 891.133 293.838C891.912 292.278 892.561 290.783 893.08 289.353C893.34 288.573 893.665 287.793 894.054 287.013C894.444 286.233 894.833 285.453 895.223 284.673C895.742 283.763 896.132 282.918 896.391 282.139C896.781 281.229 897.105 280.319 897.365 279.409C897.755 278.369 897.755 277.394 897.365 276.484C897.105 275.704 896.976 274.989 896.976 274.339C896.976 273.559 897.04 272.779 897.17 271.999C897.17 270.569 897.69 269.334 898.728 268.294C899.248 267.644 899.767 267.124 900.286 266.734C900.936 266.214 901.52 265.694 902.039 265.174C903.208 264.004 904.117 262.444 904.766 260.494C905.285 258.804 905.675 257.114 905.935 255.424C906.324 253.605 906.714 251.85 907.103 250.16C907.363 248.47 907.622 246.845 907.882 245.285C908.272 243.595 908.661 241.97 909.051 240.41C909.18 239.76 909.31 239.175 909.44 238.655C909.7 238.005 909.895 237.42 910.024 236.9C910.414 235.86 910.803 234.885 911.193 233.975C911.583 232.935 911.842 231.895 911.972 230.855C912.232 230.335 912.232 229.88 911.972 229.49C911.842 228.84 911.842 228.255 911.972 227.736C912.232 227.216 912.426 226.696 912.556 226.176C912.946 225.266 913.206 224.356 913.335 223.446C913.595 222.536 913.92 221.626 914.309 220.716C914.958 219.026 915.478 217.661 915.867 216.621C916.387 215.451 916.841 214.151 917.231 212.721C917.49 211.941 917.75 211.226 918.01 210.576C918.399 209.796 918.659 209.016 918.789 208.236C919.178 207.066 919.503 205.896 919.762 204.726C920.022 203.426 920.152 202.191 920.152 201.021C920.412 199.982 920.671 199.267 920.931 198.877C921.58 197.577 922.359 196.472 923.268 195.562C924.307 194.652 925.281 193.742 926.19 192.832C926.839 192.442 927.488 192.182 928.137 192.052C928.786 191.792 929.436 191.857 930.085 192.247C930.604 192.507 930.929 192.637 931.059 192.637C932.227 192.507 933.201 192.767 933.98 193.417C934.759 194.067 935.408 194.847 935.927 195.757C936.187 196.017 936.382 196.342 936.512 196.732C936.642 197.122 936.771 197.447 936.901 197.707C937.551 198.747 937.875 199.787 937.875 200.826C937.875 201.346 937.94 201.931 938.07 202.581C938.2 203.101 938.33 203.686 938.459 204.336C938.849 205.116 939.433 205.506 940.212 205.506C940.342 205.376 940.472 205.376 940.602 205.506C940.732 205.636 940.797 205.766 940.797 205.896C941.446 206.676 941.64 207.521 941.381 208.431C941.121 209.471 941.056 210.511 941.186 211.551C941.446 212.461 941.705 213.436 941.965 214.476C942.484 215.776 943.004 217.076 943.523 218.376C944.042 219.676 944.562 220.976 945.081 222.276C945.73 223.706 946.38 225.136 947.029 226.566C947.678 227.995 948.262 229.425 948.782 230.855C949.431 232.675 950.08 234.495 950.729 236.315C951.508 238.135 952.352 239.955 953.261 241.775L953.845 243.92C953.975 244.44 954.105 244.96 954.235 245.48C954.495 246 954.689 246.52 954.819 247.04C955.079 247.43 955.274 247.82 955.404 248.21C955.663 248.6 955.923 248.925 956.183 249.185C956.832 250.095 957.221 251.07 957.351 252.11C957.741 253.41 958.325 254.58 959.104 255.619C959.364 256.009 959.753 256.204 960.272 256.204C962.22 255.944 964.168 255.749 966.115 255.619C968.063 255.359 970.01 254.97 971.958 254.45C973.386 254.06 974.75 253.865 976.048 253.865C978.515 253.865 980.787 254.71 982.865 256.399C985.332 258.349 986.63 260.819 986.76 263.809C986.76 264.459 986.825 264.979 986.955 265.369C986.955 266.279 986.695 266.994 986.176 267.514C986.046 267.904 985.786 268.294 985.396 268.684C985.137 269.074 984.877 269.464 984.617 269.854C984.358 270.374 984.098 270.764 983.838 271.024L982.67 271.999C982.54 272.259 982.345 272.584 982.086 272.974C981.826 273.234 981.501 273.429 981.112 273.559C980.592 273.689 980.073 273.884 979.554 274.144C979.034 274.274 978.45 274.339 977.801 274.339C975.464 274.599 973.386 274.534 971.569 274.144H968.452C968.193 274.144 967.803 274.274 967.284 274.534C966.765 274.794 966.505 275.119 966.505 275.509V276.289C966.894 277.459 967.154 278.694 967.284 279.994C967.544 281.164 967.933 282.269 968.452 283.308C968.452 283.828 968.582 284.348 968.842 284.868C969.491 286.038 970.01 287.273 970.4 288.573C970.789 289.743 971.114 290.978 971.374 292.278C971.374 292.538 971.504 293.058 971.763 293.838C972.153 294.748 972.477 295.723 972.737 296.763C972.997 297.673 973.192 298.648 973.321 299.688C973.321 300.468 973.516 301.183 973.906 301.833C974.425 303.003 974.815 304.173 975.074 305.343C975.334 306.513 975.529 307.748 975.659 309.048C975.788 309.178 975.853 309.438 975.853 309.827C975.853 310.087 975.918 310.347 976.048 310.607C976.697 312.037 977.152 313.597 977.411 315.287C977.671 316.847 977.996 318.407 978.385 319.967C978.645 320.747 978.775 321.527 978.775 322.307C978.905 323.217 978.969 324.127 978.969 325.037C978.969 325.687 978.775 326.402 978.385 327.182C977.996 327.572 977.801 327.767 977.801 327.767C977.022 327.897 976.567 328.352 976.438 329.132L975.853 330.302C975.594 330.822 975.204 331.147 974.685 331.277C974.165 331.277 973.711 331.472 973.321 331.862C972.802 332.382 972.088 332.642 971.179 332.642C970.66 332.642 970.01 332.642 969.231 332.642C968.582 332.642 967.933 332.707 967.284 332.837ZM920.347 262.054C921.126 261.924 921.905 261.794 922.684 261.664C923.593 261.534 924.567 261.404 925.605 261.274C926.254 261.144 927.098 261.014 928.137 260.884C929.176 260.754 930.15 260.624 931.059 260.494C931.967 260.234 932.876 260.104 933.785 260.104C934.694 259.974 935.603 259.844 936.512 259.714C937.291 259.454 938.07 259.324 938.849 259.324C939.628 259.194 940.407 259.064 941.186 258.934C942.355 258.674 942.809 258.024 942.549 256.984C942.419 255.944 942.16 254.905 941.77 253.865C941.511 252.695 940.926 251.72 940.018 250.94C939.758 250.68 939.628 250.29 939.628 249.77V249.185C939.368 248.145 939.044 247.17 938.654 246.26C938.394 245.22 938.07 244.245 937.68 243.335C937.421 242.295 937.096 241.385 936.707 240.605C936.447 239.695 936.122 238.785 935.733 237.875L933.396 230.855C933.006 229.945 932.617 229.035 932.227 228.125C931.967 227.216 931.708 226.306 931.448 225.396L930.864 224.616H930.279L929.89 225.201C929.241 227.151 928.462 229.1 927.553 231.05C926.774 233 926.06 235.08 925.41 237.29C925.41 237.55 925.346 237.875 925.216 238.265C925.086 238.655 924.956 239.045 924.826 239.435C924.307 240.735 923.787 242.165 923.268 243.725C922.879 245.285 922.554 246.845 922.294 248.405C922.164 249.315 922.035 250.225 921.905 251.135C921.775 251.915 921.58 252.76 921.321 253.67L919.568 261.274C919.438 261.404 919.503 261.599 919.762 261.859C920.022 261.989 920.217 262.054 920.347 262.054Z" fill="#FFCC47"/>
<path d="M1019.44 322.502C1016.98 322.762 1014.96 321.982 1013.41 320.162C1012.63 319.382 1011.91 318.537 1011.26 317.627C1010.62 316.717 1010.1 315.742 1009.71 314.702C1009.06 312.882 1008.47 311.062 1007.95 309.243C1007.43 307.293 1006.98 305.408 1006.59 303.588C1006.2 302.158 1006.01 300.793 1006.01 299.493C1005.88 298.063 1005.68 296.698 1005.42 295.398C1005.29 293.968 1005.23 292.538 1005.23 291.108C1005.23 290.328 1005.23 289.548 1005.23 288.768C1005.23 287.858 1005.16 287.013 1005.03 286.233C1004.9 285.713 1004.84 285.258 1004.84 284.868C1004.84 284.478 1004.84 284.023 1004.84 283.503C1004.84 281.684 1004.84 279.864 1004.84 278.044C1004.84 276.094 1004.77 274.209 1004.64 272.389C1004.64 271.349 1004.58 270.439 1004.45 269.659C1004.32 268.749 1004.06 267.839 1003.67 266.929C1003.15 265.499 1003.08 263.939 1003.47 262.249C1003.47 261.859 1003.54 261.599 1003.67 261.469C1003.93 260.559 1004.06 259.649 1004.06 258.739C1004.19 257.829 1004.19 256.919 1004.06 256.009C1003.93 255.359 1003.86 254.71 1003.86 254.06C1003.86 253.41 1003.86 252.825 1003.86 252.305C1003.73 250.875 1003.67 249.445 1003.67 248.015C1003.8 246.455 1003.93 244.96 1004.06 243.53C1004.19 243.14 1004.25 242.75 1004.25 242.36C1004.25 241.97 1004.25 241.58 1004.25 241.19C1004.12 239.76 1004.12 238.395 1004.25 237.095C1004.51 235.795 1004.71 234.495 1004.84 233.195C1005.1 231.635 1005.36 230.14 1005.62 228.71C1005.88 227.151 1006.2 225.591 1006.59 224.031C1006.85 223.381 1006.98 222.666 1006.98 221.886C1006.98 221.106 1006.98 220.326 1006.98 219.546C1006.98 218.896 1006.91 218.246 1006.79 217.596C1006.79 216.946 1006.79 216.361 1006.79 215.841C1006.79 215.451 1006.79 215.061 1006.79 214.671C1006.79 214.281 1006.85 213.891 1006.98 213.501C1007.11 213.111 1007.17 212.721 1007.17 212.331C1007.17 211.941 1007.24 211.681 1007.37 211.551C1007.76 211.031 1008.08 210.576 1008.34 210.186C1008.6 209.666 1008.99 209.211 1009.51 208.821C1010.16 208.431 1010.75 208.041 1011.26 207.651C1011.91 207.261 1012.5 206.936 1013.02 206.676C1013.67 206.416 1014.19 206.091 1014.58 205.701C1015.09 205.051 1015.61 204.466 1016.13 203.946C1016.78 203.296 1017.3 202.581 1017.69 201.801C1018.34 201.151 1018.99 200.436 1019.64 199.657C1020.42 198.747 1021.26 198.032 1022.17 197.512C1022.43 197.382 1022.82 197.057 1023.34 196.537C1024.9 195.107 1026.72 194.197 1028.79 193.807C1029.18 193.677 1029.51 193.612 1029.77 193.612C1030.16 193.482 1030.55 193.417 1030.94 193.417L1032.3 192.832C1033.34 192.442 1034.25 192.637 1035.03 193.417C1035.28 193.807 1035.61 194.197 1036 194.587C1036.52 194.847 1036.97 195.107 1037.36 195.367C1038.4 196.277 1039.37 197.252 1040.28 198.292C1041.32 199.332 1042.23 200.501 1043.01 201.801C1044.31 203.881 1045.41 205.961 1046.32 208.041C1047.36 210.121 1048.33 212.266 1049.24 214.476L1052.75 222.861C1052.88 223.641 1053.2 224.356 1053.72 225.006C1054.76 226.956 1055.54 228.97 1056.06 231.05C1056.58 233 1057.1 235.015 1057.62 237.095C1057.75 237.355 1057.81 237.615 1057.81 237.875C1057.94 238.135 1058.01 238.395 1058.01 238.655C1058.27 239.695 1058.46 240.8 1058.59 241.97C1058.85 243.01 1058.92 244.05 1058.79 245.09C1058.92 246.26 1058.85 247.43 1058.59 248.6C1058.46 249.64 1058.27 250.68 1058.01 251.72C1057.62 253.02 1057.16 254.255 1056.64 255.424C1056.12 256.464 1055.54 257.569 1054.89 258.739C1054.63 259.519 1054.18 260.234 1053.53 260.884C1052.88 261.534 1052.23 262.119 1051.58 262.639C1050.54 263.159 1049.5 263.939 1048.46 264.979C1048.2 265.239 1047.88 265.434 1047.49 265.564C1047.23 265.694 1046.97 265.889 1046.71 266.149C1045.8 266.539 1044.83 266.994 1043.79 267.514C1042.75 267.904 1041.71 268.294 1040.67 268.684C1040.54 268.684 1040.48 268.814 1040.48 269.074C1040.48 269.204 1040.54 269.334 1040.67 269.464L1045.93 273.169C1046.58 273.559 1047.17 273.949 1047.68 274.339C1048.2 274.599 1048.72 274.924 1049.24 275.314L1050.41 275.899C1051.97 276.809 1053.53 277.784 1055.09 278.824C1056.64 279.864 1058.14 280.904 1059.57 281.944C1062.29 283.633 1065.02 285.388 1067.74 287.208C1070.47 288.898 1073.07 290.783 1075.54 292.863C1077.74 294.553 1079.69 296.503 1081.38 298.713C1081.77 299.103 1082.16 299.558 1082.55 300.078C1082.94 300.468 1083.39 300.793 1083.91 301.053L1084.49 301.638C1086.57 303.458 1087.74 305.928 1088 309.048C1088 309.438 1087.94 309.828 1087.81 310.218C1087.81 310.607 1087.81 310.997 1087.81 311.387C1087.81 312.167 1087.55 312.817 1087.03 313.337C1086.51 313.597 1086.25 313.922 1086.25 314.312C1085.86 315.222 1085.27 315.872 1084.49 316.262C1083.85 316.522 1083.2 316.912 1082.55 317.432C1082.29 317.562 1081.83 317.627 1081.18 317.627C1080.4 317.497 1079.56 317.367 1078.65 317.237C1077.87 317.107 1077.09 317.042 1076.31 317.042C1075.28 317.042 1074.17 316.587 1073 315.677C1072.22 315.027 1071.51 314.442 1070.86 313.922C1070.21 313.272 1069.56 312.492 1068.91 311.582C1067.23 309.243 1065.02 307.098 1062.29 305.148C1060.99 304.108 1059.76 303.133 1058.59 302.223C1057.42 301.313 1056.12 300.468 1054.7 299.688C1053.79 299.168 1052.88 298.648 1051.97 298.128C1051.19 297.478 1050.28 296.893 1049.24 296.373C1046 294.163 1042.69 292.018 1039.31 289.938C1035.93 287.728 1032.56 285.518 1029.18 283.308C1028.66 282.918 1028.08 282.529 1027.43 282.139C1026.78 281.749 1026.13 281.359 1025.48 280.969C1025.22 280.709 1024.83 280.449 1024.31 280.189C1023.79 280.189 1023.53 280.384 1023.53 280.774C1023.53 280.904 1023.47 281.034 1023.34 281.164C1023.34 281.164 1023.34 281.229 1023.34 281.359C1023.34 281.749 1023.34 282.139 1023.34 282.529C1023.34 282.918 1023.4 283.308 1023.53 283.698C1023.66 284.738 1023.73 285.778 1023.73 286.818C1023.73 287.728 1023.73 288.703 1023.73 289.743C1023.73 290.523 1023.73 291.303 1023.73 292.083C1023.86 292.733 1023.99 293.448 1024.12 294.228C1024.12 294.618 1024.12 295.073 1024.12 295.593C1024.25 295.983 1024.31 296.373 1024.31 296.763C1024.18 297.933 1024.25 299.103 1024.51 300.273C1024.77 301.443 1024.96 302.613 1025.09 303.783L1026.26 308.853C1026.39 309.373 1026.52 309.958 1026.65 310.607C1026.78 311.127 1026.91 311.712 1027.04 312.362C1027.17 312.882 1027.17 313.402 1027.04 313.922C1027.04 314.312 1026.98 314.767 1026.85 315.287C1026.85 315.417 1026.72 315.612 1026.46 315.872C1025.81 316.002 1025.35 316.457 1025.09 317.237C1024.7 318.147 1024.12 318.927 1023.34 319.577C1022.69 320.357 1021.98 321.072 1021.2 321.722C1021.07 321.852 1020.81 321.982 1020.42 322.112C1020.03 322.242 1019.7 322.372 1019.44 322.502ZM1027.04 254.255H1027.43C1028.86 253.995 1030.29 253.735 1031.71 253.475C1033.27 253.085 1034.77 252.63 1036.19 252.11C1037.62 251.72 1038.86 251.005 1039.89 249.965C1040.8 249.055 1041.26 248.015 1041.26 246.845C1041.39 245.935 1041.39 245.09 1041.26 244.31C1041.26 243.4 1041.13 242.49 1040.87 241.58C1040.35 239.24 1039.76 236.965 1039.12 234.755C1038.47 232.415 1037.69 230.205 1036.78 228.125L1035.03 223.446C1034.64 222.146 1034.18 220.911 1033.66 219.741C1033.14 218.441 1032.56 217.206 1031.91 216.036C1031.78 215.776 1031.65 215.516 1031.52 215.256C1031.39 214.866 1031.26 214.541 1031.13 214.281L1030.35 213.501C1029.96 212.981 1029.51 212.981 1028.99 213.501C1028.86 213.501 1028.66 213.631 1028.4 213.891C1027.49 215.061 1026.65 216.296 1025.87 217.596C1025.22 218.896 1024.83 220.326 1024.7 221.886C1024.57 222.406 1024.44 222.926 1024.31 223.446C1024.31 223.966 1024.31 224.551 1024.31 225.201V233.585C1024.18 235.405 1024.12 237.29 1024.12 239.24C1024.25 241.19 1024.18 243.075 1023.92 244.895C1023.79 245.285 1023.73 245.675 1023.73 246.065C1023.86 246.455 1023.92 246.845 1023.92 247.235C1024.05 248.015 1024.12 248.795 1024.12 249.575C1024.12 250.225 1024.12 250.94 1024.12 251.72C1024.12 253.02 1024.25 253.8 1024.51 254.06C1024.9 254.32 1025.74 254.385 1027.04 254.255Z" fill="#FFCC47"/>
</svg>
