<svg width="154" height="64" viewBox="0 0 154 64" fill="none" xmlns="http://www.w3.org/2000/svg">
<path d="M40.32 26.496L39.552 27.552C38.656 28.704 38.048 29.952 37.728 31.296C37.472 32.64 37.344 34.688 37.344 37.44V45.696L36.384 46.08L31.392 43.488C28.256 45.536 24.736 46.56 20.832 46.56C14.432 46.56 9.344 44.48 5.568 40.32C1.856 36.16 0 30.56 0 23.52C0 16.288 2.016 10.56 6.048 6.336C10.144 2.112 15.648 0 22.56 0C26.976 0 30.56 0.863999 33.312 2.592C36.128 4.256 37.536 6.464 37.536 9.216C37.536 11.904 36.416 14.016 34.176 15.552C31.936 17.088 29.12 17.856 25.728 17.856C26.624 16.768 27.328 15.616 27.84 14.4C28.352 13.12 28.608 11.488 28.608 9.504C28.608 7.328 27.968 5.6 26.688 4.32C25.408 2.976 23.808 2.304 21.888 2.304C18.304 2.304 15.424 4.256 13.248 8.16C11.136 12 10.08 17.12 10.08 23.52C10.08 27.296 10.624 30.688 11.712 33.696C12.864 36.64 14.432 38.944 16.416 40.608C18.4 42.272 20.672 43.104 23.232 43.104C25.152 43.104 27.008 42.752 28.8 42.048V33.408C28.8 31.936 28.672 30.88 28.416 30.24C28.16 29.536 27.68 28.992 26.976 28.608C26.272 28.16 25.12 27.712 23.52 27.264L24.096 25.44H39.552L40.32 26.496Z" fill="#F4F4F4"/>
<path d="M44.6295 30.24C44.6295 25.184 46.0695 21.184 48.9495 18.24C51.8935 15.296 55.8615 13.824 60.8535 13.824C65.8455 13.824 69.8135 15.328 72.7575 18.336C75.7015 21.28 77.1735 25.248 77.1735 30.24C77.1735 35.232 75.7015 39.2 72.7575 42.144C69.8135 45.088 65.8455 46.56 60.8535 46.56C55.8615 46.56 51.8935 45.088 48.9495 42.144C46.0695 39.2 44.6295 35.232 44.6295 30.24ZM67.4775 30.432C67.4775 26.144 66.8695 22.656 65.6535 19.968C64.4375 17.216 62.9015 15.84 61.0455 15.84C58.9975 15.84 57.3335 17.184 56.0535 19.872C54.7735 22.496 54.1335 25.952 54.1335 30.24C54.1335 34.592 54.7095 38.048 55.8615 40.608C57.0775 43.168 58.6775 44.448 60.6615 44.448C62.6455 44.448 64.2775 43.168 65.5575 40.608C66.8375 37.984 67.4775 34.592 67.4775 30.432Z" fill="#F4F4F4"/>
<path d="M92.607 24.48C91.263 25.248 89.663 25.632 87.807 25.632C86.463 25.632 85.407 25.248 84.639 24.48C83.871 23.648 83.487 22.496 83.487 21.024C83.487 18.848 84.543 17.12 86.655 15.84C88.831 14.496 91.647 13.824 95.103 13.824C99.199 13.824 102.399 14.72 104.703 16.512C107.071 18.304 108.255 20.736 108.255 23.808V40.416C108.255 42.208 108.895 43.104 110.175 43.104C111.391 43.104 112.575 42.624 113.727 41.664L114.495 42.624C112.127 45.248 109.311 46.56 106.047 46.56C104.127 46.56 102.655 46.08 101.631 45.12C100.671 44.16 100.095 42.656 99.903 40.608H99.519C98.495 42.464 97.119 43.936 95.391 45.024C93.727 46.048 91.807 46.56 89.631 46.56C87.199 46.56 85.247 45.824 83.775 44.352C82.303 42.816 81.567 40.832 81.567 38.4C81.567 35.648 82.879 33.472 85.503 31.872C88.127 30.272 91.679 29.472 96.159 29.472C96.991 29.472 98.175 29.536 99.711 29.664V24.864C99.711 21.728 99.327 19.488 98.559 18.144C97.791 16.736 96.543 16.032 94.815 16.032C93.599 16.032 92.639 16.416 91.935 17.184C91.231 17.952 90.879 18.944 90.879 20.16C90.879 22.08 91.455 23.52 92.607 24.48ZM94.047 41.76C97.823 41.76 99.711 38.336 99.711 31.488C96.511 31.488 94.111 32.032 92.511 33.12C90.911 34.144 90.111 35.616 90.111 37.536C90.111 38.816 90.463 39.84 91.167 40.608C91.871 41.376 92.831 41.76 94.047 41.76Z" fill="#F4F4F4"/>
<path d="M127.285 46.56C124.661 46.56 122.773 45.984 121.621 44.832C120.469 43.616 119.894 41.664 119.894 38.976V18.624H115.093C115.093 17.536 115.158 16.832 115.285 16.512C115.413 16.192 115.798 15.936 116.438 15.744C118.549 15.168 120.213 14.272 121.429 13.056C122.646 11.84 123.638 10.08 124.406 7.776C124.598 7.072 124.918 6.656 125.366 6.528C125.813 6.336 126.902 6.24 128.63 6.24V14.88H136.501C136.501 15.712 136.374 16.48 136.118 17.184C135.862 17.824 135.509 18.304 135.061 18.624H128.63V40.224C128.63 42.144 129.429 43.104 131.029 43.104C131.733 43.104 132.501 42.88 133.333 42.432C134.229 41.984 135.03 41.376 135.734 40.608L136.501 41.568C133.749 44.896 130.678 46.56 127.285 46.56Z" fill="#F4F4F4"/>
<path d="M94.4011 60.376C94.2091 60.328 94.0771 60.22 94.0051 60.052C93.9571 59.86 93.9091 59.68 93.8611 59.512C93.8131 59.344 93.7891 59.176 93.7891 59.008V58.792C93.8131 58.552 93.8011 58.312 93.7531 58.072C93.7051 57.856 93.6691 57.628 93.6451 57.388C93.6451 57.292 93.6331 57.22 93.6091 57.172L93.2131 56.416C93.1651 56.368 93.0931 56.272 92.9971 56.128C92.9251 55.96 92.8411 55.816 92.7451 55.696C92.6731 55.552 92.5891 55.408 92.4931 55.264C92.4451 55.168 92.3851 55.084 92.3131 55.012C92.2411 54.94 92.1691 54.856 92.0971 54.76C92.0491 54.688 92.0011 54.604 91.9531 54.508C91.9051 54.412 91.8331 54.328 91.7371 54.256L91.6291 54.076C91.5331 53.908 91.4371 53.752 91.3411 53.608C91.2691 53.464 91.1971 53.32 91.1251 53.176L91.0171 52.96C90.9211 52.648 90.8131 52.348 90.6931 52.06C90.5971 51.772 90.4891 51.472 90.3691 51.16C90.2971 50.968 90.2251 50.788 90.1531 50.62C90.1051 50.452 90.0331 50.284 89.9371 50.116C89.7691 49.756 89.6611 49.372 89.6131 48.964C89.5891 48.676 89.6131 48.376 89.6851 48.064C89.7571 47.872 89.8651 47.704 90.0091 47.56C90.4651 47.176 90.9691 47.032 91.5211 47.128L91.9171 47.2C92.2051 47.32 92.4091 47.488 92.5291 47.704C92.6251 47.872 92.7091 48.052 92.7811 48.244C92.8531 48.412 92.9011 48.604 92.9251 48.82C92.9731 48.964 93.0211 49.12 93.0691 49.288C93.1171 49.432 93.1771 49.588 93.2491 49.756C93.3691 50.02 93.5011 50.284 93.6451 50.548C93.7651 50.764 93.9091 50.944 94.0771 51.088C94.1971 51.184 94.3291 51.292 94.4731 51.412C94.6171 51.532 94.7491 51.652 94.8691 51.772L95.6251 52.528C95.6731 52.552 95.7091 52.588 95.7331 52.636C95.7811 52.684 95.8171 52.732 95.8411 52.78C95.9131 52.828 95.9971 52.84 96.0931 52.816C96.3331 52.744 96.5731 52.612 96.8131 52.42C97.1971 52.108 97.5091 51.784 97.7491 51.448C97.9891 51.112 98.1451 50.716 98.2171 50.26C98.2651 49.852 98.1451 49.492 97.8571 49.18C97.8091 49.084 97.7371 49.024 97.6411 49C97.4731 48.904 97.3051 48.82 97.1371 48.748C96.9931 48.652 96.8251 48.58 96.6331 48.532C96.4411 48.46 96.2731 48.352 96.1291 48.208C96.0331 48.088 95.8891 48.016 95.6971 47.992C95.5291 47.944 95.3731 47.884 95.2291 47.812C95.0851 47.74 94.9531 47.656 94.8331 47.56C94.6891 47.44 94.5451 47.344 94.4011 47.272C94.2571 47.176 94.1131 47.08 93.9691 46.984C93.8251 46.912 93.6811 46.828 93.5371 46.732C93.4171 46.636 93.2971 46.54 93.1771 46.444C93.0091 46.324 92.8531 46.204 92.7091 46.084C92.5651 45.94 92.4211 45.808 92.2771 45.688C92.1811 45.64 92.1211 45.592 92.0971 45.544C91.9771 45.4 91.8451 45.268 91.7011 45.148C91.5811 45.004 91.4611 44.848 91.3411 44.68C91.2691 44.584 91.1971 44.5 91.1251 44.428C91.0531 44.332 90.9691 44.236 90.8731 44.14C90.7771 44.044 90.6811 43.948 90.5851 43.852C90.5131 43.732 90.4531 43.612 90.4051 43.492L90.0811 42.952C89.9611 42.712 89.8531 42.472 89.7571 42.232C89.6611 41.992 89.5531 41.752 89.4331 41.512C89.3371 41.248 89.2411 40.984 89.1451 40.72C89.0731 40.456 89.0131 40.192 88.9651 39.928C88.9411 39.736 88.9051 39.556 88.8571 39.388C88.8331 39.22 88.8091 39.052 88.7851 38.884C88.7611 38.62 88.7491 38.368 88.7491 38.128C88.7491 37.864 88.7371 37.6 88.7131 37.336C88.7131 37.024 88.7371 36.712 88.7851 36.4C88.8331 36.088 88.8931 35.776 88.9651 35.464C89.0131 35.272 89.0611 35.08 89.1091 34.888C89.1571 34.696 89.2051 34.516 89.2531 34.348C89.3011 34.228 89.3491 34.12 89.3971 34.024C89.4451 33.904 89.4811 33.796 89.5051 33.7C89.6971 33.196 89.9731 32.692 90.3331 32.188C90.4531 32.02 90.5731 31.864 90.6931 31.72C90.8371 31.552 90.9811 31.396 91.1251 31.252C91.2451 31.132 91.3651 31 91.4851 30.856C91.6051 30.712 91.7131 30.568 91.8091 30.424C92.1211 30.016 92.4811 29.716 92.8891 29.524C93.2971 29.308 93.7651 29.224 94.2931 29.272C94.9411 29.368 95.5531 29.62 96.1291 30.028C96.3211 30.172 96.5131 30.328 96.7051 30.496C96.9211 30.64 97.1251 30.796 97.3171 30.964C97.7971 31.348 98.1931 31.78 98.5051 32.26C98.6491 32.476 98.7931 32.692 98.9371 32.908C99.0811 33.124 99.2131 33.34 99.3331 33.556C99.4051 33.652 99.4651 33.748 99.5131 33.844C99.5611 33.94 99.5971 34.048 99.6211 34.168C99.6691 34.384 99.6811 34.6 99.6571 34.816C99.6571 35.008 99.6331 35.212 99.5851 35.428L99.4771 35.716C99.4051 35.836 99.3331 35.968 99.2611 36.112C99.1891 36.256 99.1171 36.388 99.0451 36.508C98.9971 36.604 98.9371 36.7 98.8651 36.796C98.8171 36.868 98.7691 36.94 98.7211 37.012C98.5291 37.324 98.4331 37.636 98.4331 37.948V41.44C98.4331 41.92 98.3611 42.376 98.2171 42.808C98.2171 42.832 98.2051 42.856 98.1811 42.88C98.1811 42.88 98.1811 42.904 98.1811 42.952C98.1811 43.072 98.2171 43.168 98.2891 43.24L98.6131 43.456C98.8771 43.624 99.1171 43.816 99.3331 44.032C99.5731 44.224 99.8131 44.416 100.053 44.608C100.197 44.728 100.329 44.872 100.449 45.04C100.569 45.184 100.677 45.328 100.773 45.472C100.869 45.592 100.953 45.724 101.025 45.868C101.097 45.988 101.169 46.108 101.241 46.228C101.361 46.396 101.445 46.588 101.493 46.804C101.565 47.02 101.625 47.236 101.673 47.452V47.596C101.649 47.764 101.649 47.944 101.673 48.136C101.697 48.328 101.721 48.52 101.745 48.712C101.745 48.76 101.745 48.82 101.745 48.892C101.769 48.94 101.769 49 101.745 49.072L101.637 49.828C101.589 49.948 101.613 50.02 101.709 50.044C101.781 50.044 101.817 50.068 101.817 50.116C101.889 50.14 101.901 50.2 101.853 50.296C101.805 50.392 101.745 50.416 101.673 50.368C101.673 50.344 101.661 50.332 101.637 50.332C101.565 50.308 101.517 50.32 101.493 50.368C101.469 50.44 101.445 50.512 101.421 50.584C101.421 50.656 101.421 50.74 101.421 50.836C101.325 50.98 101.301 51.1 101.349 51.196C101.349 51.268 101.337 51.316 101.313 51.34C101.241 51.412 101.217 51.508 101.241 51.628C101.241 51.676 101.205 51.724 101.133 51.772C100.989 51.844 100.881 51.976 100.809 52.168C100.689 52.48 100.545 52.78 100.377 53.068C100.233 53.332 100.065 53.596 99.8731 53.86C99.6811 54.124 99.4771 54.388 99.2611 54.652C99.0691 54.892 98.8411 55.12 98.5771 55.336C98.3611 55.504 98.1331 55.66 97.8931 55.804C97.6531 55.972 97.4011 56.116 97.1371 56.236C97.0411 56.26 96.9451 56.308 96.8491 56.38L96.4171 56.596C96.2251 56.62 96.0331 56.716 95.8411 56.884L95.6251 57.028C95.5531 57.1 95.4931 57.22 95.4451 57.388V58.36C95.4451 58.456 95.4451 58.552 95.4451 58.648C95.4451 58.744 95.4331 58.84 95.4091 58.936C95.3851 58.984 95.3731 59.044 95.3731 59.116C95.3731 59.188 95.3611 59.248 95.3371 59.296C95.3131 59.392 95.2891 59.488 95.2651 59.584C95.2411 59.704 95.2051 59.824 95.1571 59.944C95.0371 60.28 94.7851 60.424 94.4011 60.376ZM96.5971 42.304C96.6931 42.304 96.7531 42.268 96.7771 42.196C96.8011 42.076 96.8011 41.956 96.7771 41.836C96.7771 41.716 96.7651 41.608 96.7411 41.512C96.7171 41.392 96.7051 41.272 96.7051 41.152C96.7051 41.008 96.6931 40.876 96.6691 40.756C96.6691 40.612 96.6571 40.468 96.6331 40.324C96.6091 40.18 96.6091 40.036 96.6331 39.892C96.6571 39.868 96.6571 39.856 96.6331 39.856C96.6331 39.832 96.6331 39.82 96.6331 39.82C96.6091 39.652 96.5971 39.496 96.5971 39.352C96.5971 39.208 96.5971 39.064 96.5971 38.92C96.5971 38.44 96.5011 37.972 96.3091 37.516C96.1411 37.132 95.9611 36.76 95.7691 36.4C95.6011 36.04 95.4211 35.68 95.2291 35.32C95.1571 35.176 95.0611 35.044 94.9411 34.924C94.8451 34.78 94.7371 34.648 94.6171 34.528C94.5211 34.384 94.3891 34.36 94.2211 34.456C94.0771 34.48 93.9211 34.576 93.7531 34.744C93.6091 34.912 93.4771 35.092 93.3571 35.284C93.2371 35.476 93.1291 35.68 93.0331 35.896C93.0091 35.968 92.9851 36.04 92.9611 36.112C92.9371 36.184 92.9131 36.244 92.8891 36.292C92.8651 36.46 92.8411 36.64 92.8171 36.832C92.8171 37 92.8171 37.18 92.8171 37.372V37.84C92.8171 38.176 92.9131 38.536 93.1051 38.92C93.2731 39.28 93.5131 39.64 93.8251 40C93.8971 40.096 93.9691 40.192 94.0411 40.288C94.1131 40.36 94.1851 40.456 94.2571 40.576C94.4731 40.864 94.7131 41.116 94.9771 41.332C95.2651 41.548 95.5651 41.752 95.8771 41.944L96.4171 42.232C96.4651 42.256 96.5011 42.268 96.5251 42.268C96.5491 42.268 96.5731 42.28 96.5971 42.304Z" fill="#FFCC47"/>
<path d="M116.09 55.66C115.778 55.732 115.454 55.708 115.118 55.588C115.022 55.564 114.938 55.528 114.866 55.48C114.818 55.432 114.758 55.384 114.686 55.336C114.518 55.216 114.386 55.036 114.29 54.796L114.146 54.328C114.146 54.28 114.134 54.244 114.11 54.22C114.11 54.172 114.11 54.136 114.11 54.112C114.11 53.776 114.086 53.452 114.038 53.14C113.99 52.804 113.942 52.48 113.894 52.168C113.846 51.928 113.798 51.688 113.75 51.448C113.726 51.208 113.69 50.968 113.642 50.728C113.642 50.68 113.63 50.644 113.606 50.62C113.606 50.596 113.606 50.572 113.606 50.548C113.558 50.26 113.51 49.972 113.462 49.684C113.414 49.396 113.366 49.12 113.318 48.856C113.294 48.712 113.27 48.568 113.246 48.424C113.246 48.28 113.222 48.136 113.174 47.992L112.958 46.408C112.934 46.192 112.898 45.976 112.85 45.76C112.826 45.52 112.79 45.28 112.742 45.04C112.718 44.8 112.682 44.572 112.634 44.356C112.586 44.116 112.538 43.888 112.49 43.672L111.95 41.296C111.902 41.032 111.854 40.768 111.806 40.504C111.758 40.24 111.698 39.988 111.626 39.748C111.554 39.532 111.494 39.316 111.446 39.1C111.398 38.86 111.326 38.632 111.23 38.416L111.194 38.272C111.122 37.96 111.026 37.66 110.906 37.372C110.81 37.084 110.702 36.796 110.582 36.508C110.582 36.484 110.57 36.472 110.546 36.472C110.546 36.448 110.546 36.436 110.546 36.436C110.498 36.292 110.414 36.244 110.294 36.292C110.27 36.316 110.234 36.328 110.186 36.328C110.09 36.352 109.994 36.388 109.898 36.436C109.826 36.484 109.742 36.532 109.646 36.58C109.406 36.652 109.202 36.76 109.034 36.904L108.062 37.588C107.918 37.66 107.786 37.756 107.666 37.876C107.57 37.996 107.474 38.116 107.378 38.236C107.306 38.332 107.27 38.44 107.27 38.56L107.162 39.208C107.138 39.448 107.114 39.7 107.09 39.964C107.066 40.228 107.042 40.492 107.018 40.756C106.994 40.996 106.958 41.224 106.91 41.44C106.886 41.632 106.874 41.848 106.874 42.088C106.874 42.28 106.838 42.484 106.766 42.7C106.694 42.964 106.514 43.132 106.226 43.204C106.01 43.228 105.83 43.156 105.686 42.988C105.566 42.868 105.482 42.688 105.434 42.448C105.41 42.28 105.386 42.124 105.362 41.98C105.338 41.836 105.326 41.68 105.326 41.512V40.432C105.326 40.216 105.314 40.012 105.29 39.82C105.29 39.628 105.302 39.448 105.326 39.28C105.326 38.872 105.23 38.476 105.038 38.092L104.498 36.976C104.402 36.784 104.318 36.532 104.246 36.22C104.174 35.884 104.138 35.608 104.138 35.392C104.186 34.84 104.39 34.384 104.75 34.024C105.062 33.712 105.422 33.508 105.83 33.412C105.974 33.364 106.166 33.316 106.406 33.268L108.314 32.944C108.506 32.92 108.686 32.896 108.854 32.872C109.046 32.824 109.226 32.788 109.394 32.764C109.754 32.716 110.114 32.668 110.474 32.62C110.858 32.572 111.242 32.536 111.626 32.512C111.842 32.488 112.058 32.464 112.274 32.44C112.49 32.416 112.706 32.392 112.922 32.368H113.066C113.282 32.344 113.486 32.332 113.678 32.332C113.894 32.308 114.11 32.284 114.326 32.26C114.446 32.236 114.566 32.224 114.686 32.224C114.806 32.224 114.914 32.212 115.01 32.188C115.034 32.164 115.082 32.152 115.154 32.152L116.486 32.044C116.75 32.02 117.002 31.996 117.242 31.972C117.506 31.948 117.77 31.924 118.034 31.9C118.25 31.876 118.466 31.852 118.682 31.828C118.898 31.78 119.114 31.708 119.33 31.612C119.546 31.516 119.762 31.492 119.978 31.54C120.218 31.564 120.434 31.624 120.626 31.72C120.698 31.744 120.758 31.792 120.806 31.864C120.878 31.912 120.938 31.96 120.986 32.008C121.106 32.128 121.202 32.272 121.274 32.44C121.346 32.584 121.418 32.728 121.49 32.872C121.562 33.016 121.562 33.16 121.49 33.304C121.442 33.4 121.406 33.508 121.382 33.628C121.382 33.724 121.37 33.832 121.346 33.952C121.346 34.072 121.31 34.168 121.238 34.24C121.19 34.264 121.142 34.3 121.094 34.348C121.046 34.396 120.998 34.444 120.95 34.492C120.878 34.516 120.806 34.588 120.734 34.708C120.59 34.9 120.386 34.996 120.122 34.996C120.026 34.996 119.93 35.008 119.834 35.032C119.762 35.056 119.678 35.08 119.582 35.104C119.366 35.152 119.222 35.224 119.15 35.32C119.03 35.44 118.898 35.5 118.754 35.5C118.586 35.548 118.454 35.5 118.358 35.356C118.334 35.284 118.274 35.248 118.178 35.248C118.082 35.272 117.974 35.284 117.854 35.284C117.758 35.284 117.662 35.284 117.566 35.284C117.47 35.308 117.362 35.32 117.242 35.32C117.146 35.32 117.038 35.332 116.918 35.356C116.822 35.356 116.738 35.368 116.666 35.392C116.594 35.392 116.51 35.392 116.414 35.392C116.174 35.416 115.922 35.44 115.658 35.464C115.418 35.488 115.166 35.512 114.902 35.536C114.758 35.536 114.65 35.548 114.578 35.572C114.482 35.62 114.434 35.692 114.434 35.788C114.41 35.884 114.41 36.004 114.434 36.148L114.65 37.264C114.698 37.48 114.746 37.708 114.794 37.948C114.842 38.164 114.89 38.392 114.938 38.632L115.046 39.424C115.046 39.52 115.046 39.616 115.046 39.712C115.07 39.784 115.094 39.868 115.118 39.964C115.166 40.252 115.214 40.54 115.262 40.828C115.334 41.116 115.382 41.404 115.406 41.692L115.442 41.836C115.538 42.148 115.61 42.46 115.658 42.772C115.706 43.084 115.754 43.408 115.802 43.744C115.85 43.96 115.898 44.188 115.946 44.428C115.994 44.644 116.03 44.86 116.054 45.076C116.078 45.244 116.102 45.412 116.126 45.58C116.15 45.724 116.174 45.88 116.198 46.048V46.228C116.222 46.42 116.246 46.612 116.27 46.804C116.318 46.972 116.354 47.152 116.378 47.344L116.486 48.424C116.51 48.592 116.534 48.76 116.558 48.928C116.582 49.096 116.606 49.276 116.63 49.468C116.63 49.516 116.63 49.576 116.63 49.648C116.654 49.696 116.666 49.744 116.666 49.792C116.666 49.912 116.678 50.044 116.702 50.188C116.726 50.308 116.75 50.44 116.774 50.584C116.822 50.848 116.87 51.124 116.918 51.412C116.966 51.676 117.014 51.952 117.062 52.24C117.086 52.408 117.122 52.576 117.17 52.744C117.218 52.888 117.254 53.044 117.278 53.212C117.302 53.332 117.374 53.452 117.494 53.572C117.59 53.644 117.614 53.728 117.566 53.824C117.494 53.92 117.446 54.028 117.422 54.148C117.422 54.268 117.41 54.388 117.386 54.508C117.386 54.604 117.374 54.676 117.35 54.724C117.35 54.844 117.302 54.928 117.206 54.976C117.11 55.024 117.014 55.12 116.918 55.264C116.798 55.384 116.702 55.468 116.63 55.516C116.558 55.588 116.462 55.624 116.342 55.624C116.294 55.6 116.21 55.612 116.09 55.66Z" fill="#FFCC47"/>
<path d="M143.572 63.256C143.548 63.208 143.524 63.172 143.5 63.148C143.476 63.124 143.452 63.088 143.428 63.04C143.356 62.872 143.308 62.764 143.284 62.716C143.26 62.668 143.248 62.56 143.248 62.392V60.952C143.224 60.832 143.212 60.7 143.212 60.556C143.212 60.436 143.212 60.328 143.212 60.232C143.212 60.112 143.212 60.004 143.212 59.908C143.212 59.836 143.2 59.752 143.176 59.656V59.512C143.152 59.392 143.14 59.272 143.14 59.152C143.14 59.056 143.14 58.96 143.14 58.864C143.116 58.84 143.104 58.816 143.104 58.792C143.128 58.768 143.14 58.744 143.14 58.72C143.14 58.6 143.14 58.492 143.14 58.396C143.14 58.3 143.128 58.204 143.104 58.108V57.712C143.104 57.664 143.104 57.616 143.104 57.568C143.128 57.52 143.128 57.472 143.104 57.424C143.104 57.376 143.092 57.328 143.068 57.28C143.068 57.256 143.068 57.22 143.068 57.172C143.068 56.86 142.948 56.596 142.708 56.38L142.492 56.056C142.396 55.96 142.324 55.876 142.276 55.804C142.228 55.756 142.18 55.696 142.132 55.624C142.084 55.552 142.036 55.492 141.988 55.444L141.88 55.264C141.712 54.904 141.568 54.508 141.448 54.076C141.4 53.884 141.352 53.68 141.304 53.464C141.256 53.248 141.208 53.032 141.16 52.816L141.016 52.348C140.968 52.108 140.92 51.868 140.872 51.628C140.824 51.388 140.776 51.148 140.728 50.908C140.68 50.692 140.632 50.476 140.584 50.26C140.56 50.044 140.524 49.828 140.476 49.612L140.368 49.036C140.368 48.916 140.344 48.784 140.296 48.64C140.272 48.568 140.26 48.496 140.26 48.424C140.26 48.352 140.26 48.28 140.26 48.208C140.236 48.136 140.224 48.064 140.224 47.992C140.224 47.896 140.212 47.812 140.188 47.74L140.08 46.984C140.056 46.792 140.02 46.6 139.972 46.408C139.948 46.216 139.912 46.036 139.864 45.868C139.84 45.7 139.816 45.532 139.792 45.364C139.768 45.196 139.732 45.028 139.684 44.86C139.636 44.668 139.588 44.536 139.54 44.464C139.54 44.416 139.528 44.38 139.504 44.356C139.504 44.332 139.504 44.308 139.504 44.284L139.288 43.564C139.288 43.54 139.276 43.528 139.252 43.528C139.204 43.48 139.18 43.492 139.18 43.564C139.156 43.636 139.132 43.708 139.108 43.78C139.084 43.828 139.06 43.888 139.036 43.96C138.964 44.128 138.904 44.284 138.856 44.428C138.76 44.668 138.664 44.92 138.568 45.184C138.496 45.424 138.424 45.676 138.352 45.94L138.136 46.516C138.136 46.564 138.124 46.6 138.1 46.624C138.052 46.72 138.016 46.828 137.992 46.948C137.968 47.068 137.932 47.188 137.884 47.308C137.86 47.428 137.836 47.536 137.812 47.632C137.788 47.728 137.752 47.836 137.704 47.956L137.524 48.568C137.524 48.592 137.512 48.616 137.488 48.64C137.488 48.664 137.488 48.7 137.488 48.748C137.416 48.988 137.344 49.24 137.272 49.504C137.2 49.768 137.116 50.02 137.02 50.26C136.972 50.356 136.924 50.464 136.876 50.584C136.828 50.68 136.78 50.776 136.732 50.872L136.516 51.412C136.492 51.436 136.48 51.472 136.48 51.52C136.48 51.544 136.456 51.58 136.408 51.628C136.384 51.7 136.348 51.772 136.3 51.844C136.276 51.916 136.252 51.988 136.228 52.06C136.204 52.132 136.18 52.204 136.156 52.276C136.132 52.348 136.096 52.42 136.048 52.492C136.024 52.492 136.012 52.516 136.012 52.564C135.964 52.684 135.904 52.816 135.832 52.96C135.76 53.08 135.688 53.2 135.616 53.32C135.592 53.368 135.568 53.428 135.544 53.5C135.52 53.572 135.484 53.632 135.436 53.68C135.412 53.752 135.376 53.824 135.328 53.896C135.28 53.968 135.244 54.04 135.22 54.112L135.076 54.328C135.004 54.4 134.932 54.484 134.86 54.58C134.812 54.652 134.74 54.712 134.644 54.76L134.536 54.868C134.44 54.988 134.344 55.096 134.248 55.192C134.152 55.288 134.044 55.396 133.924 55.516C133.9 55.564 133.84 55.612 133.744 55.66L133.528 55.804C133.384 55.924 133.156 55.96 132.844 55.912C132.796 55.912 132.76 55.9 132.736 55.876C132.64 55.828 132.532 55.792 132.412 55.768C132.292 55.744 132.172 55.732 132.052 55.732C131.884 55.684 131.716 55.612 131.548 55.516C131.404 55.396 131.272 55.252 131.152 55.084L131.08 55.012C131.056 54.94 131.008 54.892 130.936 54.868C130.888 54.868 130.852 54.856 130.828 54.832C130.78 54.808 130.744 54.784 130.72 54.76C130.696 54.712 130.66 54.676 130.612 54.652L130.54 54.544C130.516 54.496 130.492 54.46 130.468 54.436C130.444 54.412 130.408 54.388 130.36 54.364C130.264 54.292 130.18 54.22 130.108 54.148C130.036 54.052 129.964 53.956 129.892 53.86C129.724 53.644 129.58 53.416 129.46 53.176C129.34 52.936 129.22 52.696 129.1 52.456L128.56 51.196C128.488 51.004 128.416 50.812 128.344 50.62C128.296 50.404 128.236 50.2 128.164 50.008L127.84 48.892C127.792 48.7 127.744 48.52 127.696 48.352C127.648 48.184 127.6 48.016 127.552 47.848C127.504 47.656 127.444 47.464 127.372 47.272C127.324 47.08 127.288 46.888 127.264 46.696C127.264 46.648 127.252 46.612 127.228 46.588L127.012 45.796C127.012 45.748 127 45.712 126.976 45.688C126.976 45.64 126.976 45.604 126.976 45.58C126.952 45.46 126.928 45.34 126.904 45.22C126.904 45.076 126.88 44.944 126.832 44.824C126.832 44.752 126.808 44.644 126.76 44.5C126.76 44.428 126.736 44.32 126.688 44.176C126.64 43.936 126.592 43.732 126.544 43.564C126.52 43.516 126.508 43.48 126.508 43.456C126.508 43.408 126.496 43.372 126.472 43.348C126.448 43.228 126.424 43.108 126.4 42.988C126.4 42.868 126.376 42.748 126.328 42.628C126.304 42.508 126.28 42.4 126.256 42.304C126.232 42.184 126.208 42.076 126.184 41.98C126.16 41.86 126.136 41.728 126.112 41.584C126.088 41.44 126.052 41.308 126.004 41.188C125.956 41.044 125.908 40.912 125.86 40.792C125.836 40.648 125.8 40.504 125.752 40.36C125.728 40.288 125.704 40.228 125.68 40.18C125.68 40.108 125.68 40.036 125.68 39.964L125.536 39.388C125.512 39.292 125.476 39.196 125.428 39.1C125.404 39.004 125.392 38.908 125.392 38.812L125.284 38.344C125.236 38.248 125.212 38.164 125.212 38.092C125.212 37.9 125.176 37.696 125.104 37.48C125.08 37.312 125.056 37.156 125.032 37.012C125.008 36.868 124.984 36.712 124.96 36.544C124.96 36.496 124.948 36.448 124.924 36.4C124.924 36.328 124.924 36.268 124.924 36.22C124.852 36.004 124.816 35.788 124.816 35.572C124.816 35.5 124.816 35.428 124.816 35.356C124.816 35.284 124.804 35.212 124.78 35.14C124.756 35.02 124.744 34.9 124.744 34.78C124.744 34.636 124.732 34.504 124.708 34.384C124.684 34.336 124.672 34.276 124.672 34.204C124.672 34.156 124.66 34.108 124.636 34.06C124.636 33.988 124.636 33.928 124.636 33.88C124.612 33.712 124.588 33.556 124.564 33.412C124.564 33.268 124.564 33.124 124.564 32.98C124.564 32.908 124.564 32.836 124.564 32.764C124.564 32.668 124.576 32.584 124.6 32.512C124.624 32.44 124.636 32.368 124.636 32.296C124.636 32.2 124.648 32.116 124.672 32.044V31.864C124.744 31.648 124.84 31.504 124.96 31.432C125.032 31.384 125.104 31.336 125.176 31.288C125.248 31.216 125.308 31.144 125.356 31.072C125.356 31.072 125.392 31.036 125.464 30.964C125.512 30.94 125.56 30.916 125.608 30.892C125.656 30.868 125.704 30.856 125.752 30.856C125.8 30.832 125.824 30.808 125.824 30.784C125.824 30.736 125.836 30.7 125.86 30.676C125.932 30.604 126.016 30.568 126.112 30.568H126.184C126.256 30.592 126.328 30.592 126.4 30.568C126.496 30.52 126.604 30.496 126.724 30.496C126.772 30.496 126.868 30.52 127.012 30.568C127.156 30.616 127.24 30.64 127.264 30.64C127.432 30.664 127.552 30.76 127.624 30.928C127.648 30.976 127.684 31.024 127.732 31.072C127.804 31.096 127.864 31.144 127.912 31.216C127.984 31.288 128.044 31.36 128.092 31.432C128.14 31.528 128.176 31.624 128.2 31.72C128.248 31.792 128.284 31.852 128.308 31.9C128.332 31.948 128.344 31.996 128.344 32.044C128.344 32.068 128.356 32.104 128.38 32.152C128.404 32.44 128.428 32.728 128.452 33.016C128.5 33.304 128.56 33.592 128.632 33.88L128.668 34.132C128.716 34.252 128.752 34.384 128.776 34.528C128.8 34.648 128.812 34.768 128.812 34.888C128.788 35.056 128.812 35.236 128.884 35.428C128.884 35.476 128.884 35.536 128.884 35.608C128.908 35.68 128.92 35.752 128.92 35.824V36.256C128.92 36.4 128.932 36.508 128.956 36.58V36.688C128.98 36.88 129.004 37.084 129.028 37.3C129.076 37.492 129.112 37.684 129.136 37.876C129.136 37.924 129.136 37.984 129.136 38.056C129.16 38.104 129.172 38.152 129.172 38.2C129.172 38.296 129.172 38.38 129.172 38.452C129.196 38.524 129.22 38.608 129.244 38.704L129.352 39.172C129.376 39.244 129.388 39.34 129.388 39.46C129.388 39.532 129.388 39.604 129.388 39.676C129.412 39.724 129.436 39.784 129.46 39.856C129.58 40.144 129.64 40.408 129.64 40.648C129.664 40.744 129.688 40.852 129.712 40.972C129.736 41.092 129.772 41.212 129.82 41.332C129.868 41.452 129.904 41.584 129.928 41.728C129.952 41.872 129.976 42.004 130 42.124C130 42.196 130.012 42.244 130.036 42.268C130.084 42.436 130.12 42.604 130.144 42.772C130.192 42.916 130.24 43.072 130.288 43.24L130.504 44.14C130.552 44.332 130.6 44.5 130.648 44.644C130.696 44.812 130.732 44.98 130.756 45.148C130.804 45.316 130.852 45.484 130.9 45.652C130.9 45.676 130.9 45.712 130.9 45.76C130.924 45.784 130.936 45.82 130.936 45.868C130.96 46.012 130.984 46.156 131.008 46.3C131.032 46.42 131.056 46.54 131.08 46.66C131.104 46.732 131.116 46.804 131.116 46.876C131.14 46.924 131.152 46.984 131.152 47.056C131.176 47.128 131.188 47.2 131.188 47.272C131.212 47.344 131.224 47.416 131.224 47.488C131.272 47.632 131.308 47.776 131.332 47.92C131.38 48.064 131.428 48.22 131.476 48.388C131.524 48.484 131.548 48.592 131.548 48.712C131.572 48.808 131.596 48.916 131.62 49.036C131.644 49.132 131.668 49.24 131.692 49.36C131.74 49.456 131.776 49.564 131.8 49.684C131.824 49.78 131.848 49.876 131.872 49.972C131.92 50.068 131.956 50.164 131.98 50.26C132.028 50.428 132.088 50.584 132.16 50.728C132.232 50.872 132.292 51.028 132.34 51.196C132.34 51.196 132.364 51.22 132.412 51.268H132.484C132.508 51.268 132.52 51.268 132.52 51.268C132.52 51.244 132.52 51.232 132.52 51.232C132.664 51.04 132.784 50.872 132.88 50.728C133 50.536 133.108 50.332 133.204 50.116C133.3 49.9 133.396 49.684 133.492 49.468C133.588 49.252 133.672 49.036 133.744 48.82C133.84 48.604 133.924 48.388 133.996 48.172C134.116 47.74 134.26 47.356 134.428 47.02C134.476 46.972 134.5 46.912 134.5 46.84C134.524 46.768 134.548 46.708 134.572 46.66L134.68 46.336C134.728 46.24 134.752 46.168 134.752 46.12C134.824 45.928 134.896 45.736 134.968 45.544C135.04 45.328 135.124 45.124 135.22 44.932C135.268 44.812 135.316 44.692 135.364 44.572C135.412 44.452 135.448 44.332 135.472 44.212C135.496 44.188 135.508 44.152 135.508 44.104C135.532 44.008 135.556 43.924 135.58 43.852C135.628 43.78 135.664 43.696 135.688 43.6L136.012 42.808C136.012 42.784 136.012 42.76 136.012 42.736C136.036 42.712 136.048 42.688 136.048 42.664C136.096 42.616 136.12 42.58 136.12 42.556C136.144 42.46 136.168 42.376 136.192 42.304C136.24 42.232 136.276 42.148 136.3 42.052C136.348 42.004 136.372 41.944 136.372 41.872L136.48 41.62C136.528 41.476 136.552 41.38 136.552 41.332C136.6 41.212 136.648 41.092 136.696 40.972C136.744 40.852 136.792 40.744 136.84 40.648C136.912 40.528 136.972 40.408 137.02 40.288C137.068 40.192 137.104 40.108 137.128 40.036C137.176 39.964 137.212 39.88 137.236 39.784V39.712C137.308 39.664 137.356 39.604 137.38 39.532C137.404 39.436 137.428 39.352 137.452 39.28L137.524 39.172C137.572 39.1 137.62 39.016 137.668 38.92C137.716 38.824 137.776 38.728 137.848 38.632C137.896 38.488 137.956 38.356 138.028 38.236C138.124 38.092 138.208 37.948 138.28 37.804L138.388 37.552C138.412 37.504 138.436 37.468 138.46 37.444C138.508 37.396 138.544 37.36 138.568 37.336L138.676 37.192C138.844 36.88 139.108 36.688 139.468 36.616C139.492 36.592 139.54 36.58 139.612 36.58C139.804 36.508 140.02 36.532 140.26 36.652C140.38 36.7 140.5 36.76 140.62 36.832C140.764 36.904 140.896 36.976 141.016 37.048C141.136 37.12 141.232 37.228 141.304 37.372C141.376 37.516 141.448 37.66 141.52 37.804C141.592 37.924 141.64 38.068 141.664 38.236C141.712 38.428 141.736 38.596 141.736 38.74V38.956C141.784 39.1 141.808 39.232 141.808 39.352C141.832 39.4 141.844 39.448 141.844 39.496C141.844 39.52 141.856 39.556 141.88 39.604C141.904 39.7 141.94 39.808 141.988 39.928C142.036 40.024 142.072 40.132 142.096 40.252L142.312 40.972C142.36 41.068 142.408 41.176 142.456 41.296C142.504 41.416 142.54 41.536 142.564 41.656L142.672 42.088C142.768 42.4 142.864 42.7 142.96 42.988C143.056 43.276 143.14 43.576 143.212 43.888L143.428 45.076C143.452 45.268 143.476 45.472 143.5 45.688C143.524 45.88 143.56 46.072 143.608 46.264C143.608 46.288 143.608 46.312 143.608 46.336C143.632 46.36 143.644 46.396 143.644 46.444C143.644 46.54 143.644 46.66 143.644 46.804C143.668 46.924 143.692 47.044 143.716 47.164V47.308C143.788 47.524 143.824 47.764 143.824 48.028C143.848 48.076 143.86 48.136 143.86 48.208C143.86 48.256 143.872 48.304 143.896 48.352C143.92 48.424 143.932 48.496 143.932 48.568C143.956 48.616 143.98 48.664 144.004 48.712C144.028 48.784 144.028 48.856 144.004 48.928C143.98 48.976 143.98 49.024 144.004 49.072C144.028 49.12 144.04 49.18 144.04 49.252C144.04 49.3 144.052 49.348 144.076 49.396C144.076 49.396 144.076 49.408 144.076 49.432C144.076 49.432 144.088 49.42 144.112 49.396H144.148C144.172 49.324 144.196 49.264 144.22 49.216C144.244 49.144 144.268 49.084 144.292 49.036C144.34 48.892 144.388 48.748 144.436 48.604C144.484 48.46 144.532 48.316 144.58 48.172C144.7 47.836 144.808 47.5 144.904 47.164C145 46.804 145.096 46.444 145.192 46.084L145.3 45.76C145.348 45.64 145.384 45.532 145.408 45.436C145.456 45.316 145.492 45.196 145.516 45.076L145.696 44.572C145.744 44.428 145.792 44.284 145.84 44.14C145.888 43.996 145.924 43.864 145.948 43.744C145.972 43.648 145.996 43.564 146.02 43.492C146.044 43.42 146.068 43.336 146.092 43.24C146.14 43.096 146.188 43 146.236 42.952C146.236 42.904 146.236 42.868 146.236 42.844C146.26 42.82 146.272 42.796 146.272 42.772C146.368 42.628 146.44 42.484 146.488 42.34C146.536 42.172 146.572 42.016 146.596 41.872C146.644 41.776 146.68 41.68 146.704 41.584C146.728 41.488 146.752 41.404 146.776 41.332L146.884 41.008C146.884 40.864 146.92 40.72 146.992 40.576C147.04 40.48 147.076 40.372 147.1 40.252C147.148 40.132 147.184 40.024 147.208 39.928C147.208 39.856 147.22 39.808 147.244 39.784C147.316 39.568 147.388 39.352 147.46 39.136C147.532 38.896 147.616 38.668 147.712 38.452C147.712 38.404 147.712 38.368 147.712 38.344C147.736 38.32 147.748 38.296 147.748 38.272C147.844 38.032 147.928 37.78 148 37.516L148.108 37.192C148.156 37.024 148.204 36.868 148.252 36.724C148.3 36.58 148.348 36.424 148.396 36.256C148.42 36.208 148.432 36.16 148.432 36.112C148.432 36.064 148.444 36.028 148.468 36.004C148.564 35.74 148.648 35.464 148.72 35.176C148.792 34.888 148.864 34.612 148.936 34.348C149.008 34.108 149.08 33.88 149.152 33.664C149.224 33.424 149.284 33.184 149.332 32.944C149.332 32.896 149.332 32.848 149.332 32.8C149.356 32.728 149.38 32.656 149.404 32.584C149.428 32.464 149.452 32.344 149.476 32.224C149.5 32.104 149.524 31.984 149.548 31.864C149.596 31.744 149.62 31.636 149.62 31.54C149.62 31.444 149.632 31.348 149.656 31.252C149.68 31.204 149.68 31.168 149.656 31.144C149.656 31.12 149.668 31.096 149.692 31.072C149.74 30.952 149.764 30.832 149.764 30.712C149.788 30.568 149.812 30.436 149.836 30.316C149.86 30.124 149.884 29.944 149.908 29.776C149.956 29.584 149.992 29.404 150.016 29.236V28.192C150.016 27.856 150.124 27.544 150.34 27.256C150.388 27.184 150.448 27.1 150.52 27.004C150.592 26.908 150.652 26.812 150.7 26.716C150.724 26.668 150.784 26.596 150.88 26.5C150.952 26.428 151.06 26.344 151.204 26.248C151.372 26.128 151.576 26.044 151.816 25.996C151.936 25.972 152.104 25.984 152.32 26.032C152.56 26.056 152.74 26.116 152.86 26.212C152.932 26.26 153.028 26.344 153.148 26.464C153.412 26.776 153.58 27.112 153.652 27.472C153.652 27.592 153.64 27.688 153.616 27.76L153.508 28.012C153.508 28.084 153.52 28.132 153.544 28.156C153.592 28.252 153.616 28.312 153.616 28.336C153.616 28.408 153.652 28.444 153.724 28.444C153.796 28.516 153.832 28.6 153.832 28.696C153.832 28.72 153.82 28.744 153.796 28.768C153.796 28.792 153.796 28.828 153.796 28.876C153.772 28.9 153.76 28.924 153.76 28.948C153.76 28.972 153.748 28.996 153.724 29.02C153.7 29.092 153.688 29.2 153.688 29.344C153.736 29.416 153.736 29.488 153.688 29.56C153.64 29.704 153.592 29.824 153.544 29.92L153.436 30.136C153.388 30.256 153.34 30.388 153.292 30.532C153.268 30.628 153.256 30.712 153.256 30.784C153.256 30.856 153.244 30.928 153.22 31C153.196 31.024 153.184 31.072 153.184 31.144C153.232 31.264 153.22 31.372 153.148 31.468C153.148 31.588 153.136 31.708 153.112 31.828C153.088 31.948 153.064 32.068 153.04 32.188C153.04 32.356 153.028 32.524 153.004 32.692C152.98 32.836 152.956 32.992 152.932 33.16C152.932 33.184 152.92 33.208 152.896 33.232C152.896 33.232 152.896 33.244 152.896 33.268C152.848 33.436 152.812 33.604 152.788 33.772C152.764 33.94 152.74 34.108 152.716 34.276C152.716 34.324 152.704 34.36 152.68 34.384C152.656 34.456 152.644 34.528 152.644 34.6C152.644 34.672 152.644 34.744 152.644 34.816C152.644 34.864 152.632 34.912 152.608 34.96C152.584 35.032 152.56 35.104 152.536 35.176C152.512 35.248 152.5 35.332 152.5 35.428C152.5 35.476 152.488 35.512 152.464 35.536C152.44 35.584 152.416 35.644 152.392 35.716C152.368 35.764 152.356 35.812 152.356 35.86C152.356 35.884 152.332 35.944 152.284 36.04C152.188 36.064 152.14 36.136 152.14 36.256C152.116 36.328 152.08 36.412 152.032 36.508C152.008 36.58 152.008 36.664 152.032 36.76C152.032 36.856 152.02 36.916 151.996 36.94C151.9 37.108 151.852 37.3 151.852 37.516C151.852 37.588 151.84 37.66 151.816 37.732C151.816 37.78 151.816 37.828 151.816 37.876C151.792 37.9 151.78 37.936 151.78 37.984C151.78 38.008 151.756 38.044 151.708 38.092C151.66 38.164 151.624 38.248 151.6 38.344C151.576 38.44 151.54 38.536 151.492 38.632C151.468 38.656 151.456 38.692 151.456 38.74C151.504 38.908 151.468 39.052 151.348 39.172L151.24 39.388C151.168 39.46 151.108 39.556 151.06 39.676C150.988 39.772 150.952 39.88 150.952 40C150.952 40.048 150.94 40.084 150.916 40.108C150.916 40.276 150.868 40.42 150.772 40.54C150.724 40.588 150.724 40.648 150.772 40.72C150.772 40.72 150.772 40.744 150.772 40.792C150.676 40.84 150.628 40.888 150.628 40.936C150.604 41.008 150.58 41.08 150.556 41.152C150.556 41.2 150.556 41.26 150.556 41.332V41.44C150.604 41.512 150.604 41.596 150.556 41.692C150.532 41.716 150.52 41.752 150.52 41.8C150.52 41.872 150.496 41.956 150.448 42.052C150.424 42.076 150.412 42.136 150.412 42.232C150.388 42.304 150.376 42.376 150.376 42.448C150.376 42.52 150.376 42.592 150.376 42.664C150.328 42.808 150.28 42.904 150.232 42.952C150.136 43 150.088 43.06 150.088 43.132C150.04 43.18 150.016 43.228 150.016 43.276C149.944 43.372 149.908 43.492 149.908 43.636C149.908 43.732 149.884 43.804 149.836 43.852C149.812 43.924 149.776 43.996 149.728 44.068C149.704 44.14 149.692 44.212 149.692 44.284C149.668 44.356 149.656 44.44 149.656 44.536C149.608 44.68 149.56 44.8 149.512 44.896C149.392 45.064 149.308 45.268 149.26 45.508C149.236 45.604 149.212 45.712 149.188 45.832C149.164 45.952 149.128 46.072 149.08 46.192C149.056 46.288 149.02 46.396 148.972 46.516C148.948 46.636 148.924 46.756 148.9 46.876C148.876 46.972 148.852 47.068 148.828 47.164C148.828 47.236 148.804 47.32 148.756 47.416C148.756 47.44 148.744 47.464 148.72 47.488C148.72 47.488 148.72 47.512 148.72 47.56C148.72 47.656 148.696 47.752 148.648 47.848C148.624 47.944 148.6 48.04 148.576 48.136C148.552 48.256 148.516 48.388 148.468 48.532C148.444 48.676 148.432 48.808 148.432 48.928C148.432 49 148.42 49.072 148.396 49.144C148.396 49.192 148.384 49.252 148.36 49.324C148.288 49.468 148.252 49.612 148.252 49.756L148.18 50.044C148.156 50.116 148.132 50.2 148.108 50.296C148.084 50.368 148.06 50.44 148.036 50.512C147.988 50.752 147.94 50.956 147.892 51.124C147.868 51.22 147.844 51.316 147.82 51.412C147.796 51.508 147.772 51.616 147.748 51.736C147.724 51.88 147.688 52.024 147.64 52.168C147.592 52.312 147.544 52.456 147.496 52.6C147.472 52.624 147.46 52.66 147.46 52.708C147.46 52.756 147.448 52.804 147.424 52.852L147.316 53.248C147.196 53.44 147.124 53.632 147.1 53.824C147.052 53.92 147.028 54.004 147.028 54.076C147.004 54.1 146.992 54.124 146.992 54.148C146.992 54.172 146.98 54.196 146.956 54.22C146.908 54.484 146.836 54.724 146.74 54.94C146.668 55.108 146.596 55.276 146.524 55.444C146.452 55.612 146.368 55.78 146.272 55.948C146.224 56.044 146.188 56.104 146.164 56.128C146.044 56.296 145.924 56.488 145.804 56.704L145.696 56.956C145.648 56.98 145.6 57.04 145.552 57.136C145.432 57.28 145.336 57.436 145.264 57.604C145.216 57.772 145.168 57.952 145.12 58.144C145.12 58.192 145.108 58.228 145.084 58.252C145.084 58.3 145.084 58.348 145.084 58.396C145.084 58.492 145.084 58.576 145.084 58.648C145.084 58.744 145.072 58.84 145.048 58.936C145.048 58.96 145.036 58.996 145.012 59.044C145.012 59.116 145.012 59.176 145.012 59.224C145.012 59.392 145.012 59.548 145.012 59.692C145.012 59.86 145 60.028 144.976 60.196V60.304C144.976 60.4 144.964 60.496 144.94 60.592C144.94 60.712 144.928 60.832 144.904 60.952C144.904 61.024 144.892 61.096 144.868 61.168C144.868 61.24 144.868 61.312 144.868 61.384C144.844 61.456 144.832 61.528 144.832 61.6C144.832 61.672 144.82 61.744 144.796 61.816V61.96C144.796 62.248 144.736 62.548 144.616 62.86L144.508 63.112C144.436 63.28 144.292 63.376 144.076 63.4C143.86 63.448 143.692 63.4 143.572 63.256Z" fill="#FFCC47"/>
</svg>
