<svg width="32" height="27" viewBox="0 0 32 27" fill="none" xmlns="http://www.w3.org/2000/svg">
<path d="M22.3184 17.2542L21.0324 17.4675L20.5037 17.1035C21.7913 14.9831 22.3523 12.4145 21.9177 9.79357C20.9486 3.94929 15.4259 -0.0024927 9.58157 0.966566C3.73729 1.93563 -0.214495 7.45842 0.754564 13.3027C1.72362 19.147 7.24642 23.0988 13.0907 22.1297C15.7117 21.6951 17.9618 20.3351 19.5531 18.432L20.0682 18.815L20.2814 20.101L29.7681 26.8748L31.7915 24.0469L22.3184 17.2542ZM12.5508 18.8738C8.49728 19.546 4.68256 16.8164 4.01043 12.7628C3.3383 8.70928 6.06788 4.89457 10.1214 4.22243C14.175 3.5503 17.9897 6.27988 18.6618 10.3334C19.334 14.387 16.6044 18.2017 12.5508 18.8738Z" fill="white"/>
</svg>
